<svg xmlns="http://www.w3.org/2000/svg" xmlns:xlink="http://www.w3.org/1999/xlink" width="25" height="24" viewBox="0 0 25 24">
    <defs>
        <path id="a" d="M7.52 13.897a.5.5 0 0 1 .5.5c0 1.713-1.513 3.08-3.355 3.08S1.31 16.11 1.31 14.397a.5.5 0 0 1 1 0c0 1.137 1.043 2.08 2.355 2.08 1.311 0 2.355-.943 2.355-2.08a.5.5 0 0 1 .5-.5zM15.05.027c1.604.172 1.79 2.461.567 3.164.147.45.407 1.233.786 2.364l.006.018.518 1.546.113.339.135.404c1.612.104 3.195.887 4.1 2.093a.5.5 0 1 1-.8.6C19.699 9.52 18.242 8.85 16.81 8.85a.5.5 0 0 1-.475-.344l-.06-.18c-.068-.208-.165-.498-.296-.89-.1-.302-.5-1.492-.517-1.546l-.006-.017c-.605-1.807-.892-2.672-.942-2.862a.5.5 0 0 1 .413-.623c.645-.092.645-1.299.07-1.363-.777 0-1.536.001-2.268.004v6.396a2.497 2.497 0 0 1-2.496 2.498H8.364c-.834 0-1.51-.668-1.51-1.5v-.501h-.049l-5.06-.001c-.313.447-.578 1.413-.578 2.151v2.536h12.288c.04 0 .077.004.114.012a3.632 3.632 0 0 1 3.394-2.304c2.005 0 3.633 1.601 3.633 3.58 0 1.98-1.628 3.58-3.633 3.58-2.004 0-3.632-1.6-3.632-3.58 0-.097.004-.194.012-.29l-12.676.002a.5.5 0 0 1-.5-.5v-3.036c0-.72.184-1.574.484-2.229a1.045 1.045 0 0 1-.65-.97v-1.98c0-.58.468-1.05 1.05-1.05h5.754c.581 0 1.05.466 1.05 1.05v1.98c0 .114-.02.225-.053.33a.478.478 0 0 1 .052.22v1c0 .277.226.5.51.5h1.868c.826 0 1.496-.67 1.496-1.498V1.052H9.303c-.663 0-.668-.992-.006-1A224.8 224.8 0 0 1 10.911.04C12.176.03 13.554.025 15.049.028zm1.913 11.29c-1.455 0-2.632 1.156-2.632 2.58 0 1.423 1.177 2.58 2.632 2.58 1.456 0 2.633-1.157 2.633-2.58 0-1.424-1.177-2.58-2.633-2.58zM6.805 4.841H1.051a.049.049 0 0 0-.05.051v1.98c0 .03.02.05.05.05h5.754c.028 0 .05-.022.05-.05v-1.98c0-.03-.02-.05-.05-.05z"/>
    </defs>
    <g fill="none" fill-rule="evenodd" transform="translate(2 3)">
        <mask id="b" fill="#FFFFFF">
            <use xlink:href="#a"/>
        </mask>
        <g fill="#333333" mask="url(#b)">
            <path d="M-17-19h55v55h-55z"/>
        </g>
    </g>
</svg>