<svg xmlns="http://www.w3.org/2000/svg" xmlns:xlink="http://www.w3.org/1999/xlink" x="0px" y="0px" width="48px" height="48px" viewBox="0 0 48 48"><g >
<path fill="#F2C7AA" d="M31.80859,29.41113c-0.19824-0.27197-0.50488-0.42383-0.85645-0.41016l-21,1
	C9.41895,30.02637,9,30.46631,9,31c0,8.82227,7.17773,16,16,16c0.41699,0,0.79004-0.25879,0.93652-0.64893l6-16
	C32.05469,30.03613,32.00586,29.68311,31.80859,29.41113z"/>
<path fill="#F2C7AA" d="M8,10V6c0-1.65685,1.34314-3,3-3H11c1.65685,0,3,1.34314,3,3v4"/>
<path fill="#F2C7AA" d="M16,10V5c0-1.65685,1.34314-3,3-3H19c1.65685,0,3,1.34314,3,3v5"/>
<path fill="#F2C7AA" d="M32,10V5c0-1.65685,1.34314-3,3-3H35c1.65685,0,3,1.34314,3,3v5"/>
<path fill="#F2C7AA" d="M24,10V3c0-1.65685,1.34314-3,3-3H27c1.65685,0,3,1.34314,3,3v7"/>
<path fill="#4DA34D" d="M46,34H2c-0.55225,0-1-0.44775-1-1V9c0-0.55225,0.44775-1,1-1h44c0.55225,0,1,0.44775,1,1v24
	C47,33.55225,46.55225,34,46,34z"/>
<path fill="#9EDB9E" d="M38,11H10c0,3.31372-2.68628,6-6,6v8c3.31372,0,6,2.68628,6,6h28c0-3.31372,2.68628-6,6-6v-8
	C40.68628,17,38,14.31372,38,11z"/>
<circle fill="#4DA34D" cx="24" cy="21" r="5"/>
<path opacity="0.1" d="M33,23.95068V30c-3.16504,0-6.32379,1.49603-8.44073,4h14.1488C38.89362,33.02704,39,32.02618,39,31V17.06183
	C34.52344,16.51318,33,19.63281,33,23.95068z"/>
<path fill="#F2C7AA" d="M41,17.06181c-4.47653-0.5486-6,2.571-6,6.88888V30c-5.5,0-11,4.5-11,11l0.00001,4.98149
	c0,0.55046,0.43692,1.01804,0.98738,1.01847C33.81543,47.00684,41,39.82647,41,31L41,17.06181z"/>
</g></svg>