<?xml version="1.0" encoding="UTF-8"?>
<svg width="78px" height="18px" viewBox="0 0 78 18" version="1.1" xmlns="http://www.w3.org/2000/svg" xmlns:xlink="http://www.w3.org/1999/xlink">
    <!-- Generator: Sketch 54 (76480) - https://sketchapp.com -->
    <title>icon-klarna</title>
    <desc>Created with Sketch.</desc>
    <defs>
        <polygon id="path-1" points="0.103345695 0.157281553 10.830498 0.157281553 10.830498 17.4931864 0.103345695 17.4931864"></polygon>
        <polygon id="path-3" points="0 17.8427184 77.9827815 17.8427184 77.9827815 0.174757282 0 0.174757282"></polygon>
    </defs>
    <g id="Symbols" stroke="none" stroke-width="1" fill="none" fill-rule="evenodd">
        <g id="tab-klarna-unactive" transform="translate(-57.000000, -23.000000)">
            <g id="icon-klarna" transform="translate(57.000000, 23.000000)">
                <g id="Group-3" transform="translate(4.304636, 0.017476)">
                    <mask id="mask-2" fill="white">
                        <use xlink:href="#path-1"></use>
                    </mask>
                    <g id="Clip-2"></g>
                    <path d="M9.41857748,0.157264078 L5.57884238,0.157264078 C5.57884238,3.35532233 4.13248477,6.27376893 1.61857748,8.19609903 L0.103345695,9.34949709 L5.99208742,17.4931864 L10.830498,17.4931864 L5.40665695,9.99609903 C7.97221987,7.40969126 9.41857748,3.91454563 9.41857748,0.157264078" id="Fill-1" fill="#000000" mask="url(#mask-2)"></path>
                </g>
                <mask id="mask-4" fill="white">
                    <use xlink:href="#path-3"></use>
                </mask>
                <g id="Clip-5"></g>
                <polygon id="Fill-4" fill="#000000" mask="url(#mask-4)" points="0 17.5106796 3.92582781 17.5106796 3.92582781 0.174757282 0 0.174757282"></polygon>
                <polygon id="Fill-6" fill="#000000" mask="url(#mask-4)" points="16.2715232 17.5106796 19.9735099 17.5106796 19.9735099 0.174757282 16.2715232 0.174757282"></polygon>
                <path d="M52.4476132,5.19030874 C51.0358649,5.19030874 49.6926464,5.62720194 48.7974543,6.86797864 L48.7974543,5.52234757 L45.2846993,5.52234757 L45.2846993,17.5106971 L48.8491099,17.5106971 L48.8491099,11.219435 C48.8491099,9.40195922 50.0544079,8.51069709 51.5005934,8.51069709 C53.0502623,8.51069709 53.9456265,9.45438641 53.9456265,11.2019592 L53.9456265,17.5281728 L57.4754278,17.5281728 L57.4754278,9.89127961 C57.4754278,7.09516311 55.2886728,5.19030874 52.4476132,5.19030874" id="Fill-7" fill="#000000" mask="url(#mask-4)"></path>
                <path d="M27.9456609,14.5923029 C26.172151,14.5923029 24.7430119,13.2117204 24.7430119,11.5164 C24.7430119,9.82125437 26.172151,8.4408466 27.9456609,8.4408466 C29.7191709,8.4408466 31.1483099,9.82125437 31.1483099,11.5164 C31.1483099,13.2117204 29.7191709,14.5923029 27.9456609,14.5923029 L27.9456609,14.5923029 Z M31.1655285,5.5224 L31.1655285,6.29133204 C30.166853,5.59230291 28.961555,5.19036117 27.6529457,5.19036117 C24.2092371,5.19036117 21.4198331,8.02125437 21.4198331,11.5164 C21.4198331,15.0115456 24.2092371,17.8427883 27.6529457,17.8427883 C28.961555,17.8427883 30.166853,17.4408466 31.1655285,16.7418175 L31.1655285,17.5105748 L34.6953298,17.5105748 L34.6953298,5.5224 L31.1655285,5.5224 Z" id="Fill-8" fill="#000000" mask="url(#mask-4)"></path>
                <path d="M40.1708265,7.07765243 L40.1708265,5.52231262 L36.5549325,5.52231262 L36.5549325,17.5106621 L40.1882172,17.5106621 L40.1882172,11.9184291 C40.1882172,10.0310505 42.2026146,9.01745825 43.5973166,9.01745825 L43.6319258,9.01745825 L43.6319258,5.52231262 C42.2026146,5.52231262 40.8769589,6.15143883 40.1708265,7.07765243" id="Fill-9" fill="#000000" mask="url(#mask-4)"></path>
                <path d="M65.2411285,14.5923029 C63.4674464,14.5923029 62.0383073,13.2117204 62.0383073,11.5164 C62.0383073,9.82125437 63.4674464,8.4408466 65.2411285,8.4408466 C67.0146384,8.4408466 68.4437775,9.82125437 68.4437775,11.5164 C68.4608238,13.2117204 67.0146384,14.5923029 65.2411285,14.5923029 L65.2411285,14.5923029 Z M68.4608238,5.5224 L68.4608238,6.29133204 C67.4621483,5.59230291 66.2568503,5.19036117 64.9484132,5.19036117 C61.5047046,5.19036117 58.7153007,8.02125437 58.7153007,11.5164 C58.7153007,15.0115456 61.5047046,17.8427883 64.9484132,17.8427883 C66.2568503,17.8427883 67.4621483,17.4408466 68.4608238,16.7418175 L68.4608238,17.5105748 L71.9906252,17.5105748 L71.9906252,5.5224 L68.4608238,5.5224 Z" id="Fill-10" fill="#000000" mask="url(#mask-4)"></path>
                <path d="M74.6636259,6.11142883 L74.3624676,6.11142883 L74.3624676,5.76527498 L74.6636259,5.76527498 C74.8443209,5.76527498 74.9343673,5.83017883 74.9343673,5.9383519 C74.9343673,6.04652498 74.8744367,6.11142883 74.6636259,6.11142883 M75.2057109,5.9383519 C75.2057109,5.72200575 74.9949001,5.59219806 74.6636259,5.59219806 L74.0914252,5.59219806 L74.0914252,6.71719806 L74.3624676,6.71719806 L74.3624676,6.30614037 L74.6636259,6.30614037 L74.9045526,6.71719806 L75.2057109,6.71719806 L74.9343673,6.26287114 C75.1153634,6.19796729 75.2057109,6.08979421 75.2057109,5.9383519" id="Fill-11" fill="#000000" mask="url(#mask-4)"></path>
                <path d="M74.3669563,6.76312427 C73.9881483,6.76312427 73.6954331,6.44856117 73.6954331,6.06409515 C73.6954331,5.67962913 74.0051947,5.36506602 74.3669563,5.36506602 C74.7455921,5.36506602 75.0383073,5.67962913 75.0383073,6.06409515 C75.0383073,6.44856117 74.7285457,6.76312427 74.3669563,6.76312427 M74.3669563,5.20778447 C73.9020556,5.20778447 73.5232477,5.59225049 73.5232477,6.06409515 C73.540294,6.53593981 73.9020556,6.92040583 74.3669563,6.92040583 C74.8316848,6.92040583 75.2104927,6.53593981 75.2104927,6.06409515 C75.2104927,5.59225049 74.8316848,5.20778447 74.3669563,5.20778447" id="Fill-12" fill="#000000" mask="url(#mask-4)"></path>
                <path d="M75.7615894,13.2640427 C74.5390728,13.2640427 73.5403974,14.277635 73.5403974,15.5184117 C73.5403974,16.7591883 74.5390728,17.7727806 75.7615894,17.7727806 C76.984106,17.7727806 77.9827815,16.7591883 77.9827815,15.5184117 C77.9827815,14.2601592 76.984106,13.2640427 75.7615894,13.2640427" id="Fill-13" fill="#000000" mask="url(#mask-4)"></path>
            </g>
        </g>
    </g>
</svg>