<?xml version="1.0" standalone="no"?>
<!DOCTYPE svg PUBLIC "-//W3C//DTD SVG 20010904//EN"
 "http://www.w3.org/TR/2001/REC-SVG-20010904/DTD/svg10.dtd">
<svg version="1.0" xmlns="http://www.w3.org/2000/svg"
 width="700.000000pt" height="700.000000pt" viewBox="0 0 700.000000 700.000000"
 preserveAspectRatio="xMidYMid meet">
<metadata>
Created by potrace 1.11, written by Peter Selinger 2001-2013
</metadata>
<g transform="translate(0.000000,700.000000) scale(0.100000,-0.100000)"
fill="#000000" stroke="none">
<path d="M3338 6715 c-2 -1 -30 -5 -64 -9 -156 -16 -387 -83 -542 -157 -265
-128 -483 -303 -670 -538 l-19 -24 -99 49 c-199 100 -351 134 -579 130 -146
-3 -186 -7 -237 -22 -10 -3 -30 -7 -44 -10 -77 -14 -283 -101 -359 -152 -196
-130 -339 -287 -437 -478 -99 -193 -140 -363 -140 -582 0 -399 210 -791 542
-1013 36 -23 99 -70 140 -104 99 -81 300 -236 301 -233 3 6 8 135 14 373 8
292 8 295 18 295 4 0 11 0 16 0 11 0 27 -48 36 -105 26 -175 29 -313 25 -1060
0 -121 1 -258 4 -305 3 -47 8 -173 11 -280 3 -107 8 -235 10 -285 2 -49 7
-178 10 -285 3 -107 8 -235 10 -285 2 -49 7 -187 10 -305 9 -264 12 -362 14
-375 1 -5 9 -1 19 11 42 50 159 121 292 177 215 90 675 207 990 253 25 3 54 7
65 9 56 8 197 25 250 30 33 4 70 8 82 10 161 27 904 26 1188 -1 165 -15 215
-21 275 -30 19 -3 50 -7 68 -9 72 -9 121 -17 202 -32 47 -8 96 -17 110 -19 14
-3 33 -7 42 -10 10 -3 28 -7 40 -10 55 -10 74 -14 182 -43 249 -67 474 -163
556 -238 13 -12 25 -21 27 -19 2 1 5 63 8 137 8 246 15 452 20 609 3 85 7 214
10 285 7 212 15 460 20 615 3 80 8 226 11 325 3 99 7 218 9 265 1 47 3 118 4
158 1 60 4 75 22 90 12 9 26 22 33 27 6 6 61 48 121 95 61 46 153 118 205 160
52 41 115 88 140 105 56 36 152 116 205 171 187 192 312 458 341 724 8 74 8
240 0 285 -3 17 -8 46 -11 65 -38 227 -160 468 -323 636 -204 212 -444 333
-752 379 -52 8 -253 8 -290 0 -14 -3 -45 -8 -70 -11 -56 -8 -212 -52 -224 -64
-4 -4 19 -45 54 -90 115 -151 168 -254 175 -343 4 -52 -20 -81 -60 -71 -35 9
-132 102 -206 199 -121 157 -421 470 -534 556 -184 141 -426 262 -626 314 -35
9 -80 20 -99 25 -19 5 -60 12 -90 16 -30 3 -59 9 -65 12 -9 6 -381 13 -387 7z
m-143 -2056 c51 -14 117 -47 132 -68 18 -23 16 -58 -4 -67 -10 -4 -65 -8 -123
-8 -97 -1 -110 -3 -174 -33 -180 -86 -323 -258 -386 -465 -14 -48 -14 -171 0
-198 9 -17 17 -20 48 -14 59 11 209 63 320 111 109 48 138 74 161 143 32 98
109 120 206 60 42 -26 43 -43 4 -210 -15 -69 -48 -217 -73 -329 -26 -116 -52
-211 -60 -220 -24 -23 -90 -17 -136 13 -66 44 -94 106 -78 176 4 19 10 69 14
110 3 41 7 77 8 80 3 13 -18 10 -57 -8 -93 -43 -114 -51 -159 -62 -42 -11
-182 -9 -228 2 -114 29 -198 90 -236 173 -59 126 -4 354 124 515 132 166 331
286 507 307 28 3 51 6 52 7 6 5 102 -6 138 -15z m1021 -24 c100 -30 237 -143
278 -230 l17 -35 79 -1 c94 -2 87 -1 126 -17 42 -18 61 -58 38 -83 -23 -26
-75 -41 -148 -42 l-62 -1 -22 -63 c-51 -145 -157 -275 -305 -371 -161 -105
-319 -122 -462 -50 -87 45 -159 151 -168 252 -14 153 89 394 227 531 128 126
242 158 402 110z m500 -867 c103 -70 137 -214 96 -408 -68 -331 -280 -606
-669 -868 -157 -106 -421 -219 -604 -258 -177 -37 -410 -50 -544 -29 -73 11
-204 50 -272 81 -204 95 -365 293 -449 553 -31 99 -39 161 -39 321 1 114 4
141 20 174 36 71 126 123 159 91 16 -16 15 -33 -8 -104 -33 -102 -42 -249 -20
-341 33 -142 150 -289 294 -369 74 -41 227 -94 305 -106 190 -29 356 -24 510
15 77 19 198 62 221 78 13 8 43 82 109 267 88 246 163 381 303 542 237 273
388 393 498 393 31 0 55 -9 90 -32z"/>
<path d="M4104 4501 c-133 -60 -285 -355 -278 -540 2 -47 41 -141 58 -141 22
0 121 52 180 94 241 173 313 422 163 563 -42 40 -73 46 -123 24z"/>
<path d="M4577 3504 c-47 -16 -71 -35 -172 -133 -141 -138 -180 -186 -321
-393 -76 -112 -155 -227 -176 -257 -21 -30 -36 -56 -34 -58 7 -7 146 65 211
109 193 131 367 295 462 437 73 107 98 159 117 239 13 57 13 62 -2 63 -10 0
-24 2 -32 3 -8 2 -32 -3 -53 -10z"/>
<path d="M2837 1254 c-1 -1 -78 -5 -172 -8 -93 -4 -192 -9 -220 -11 -161 -13
-198 -17 -218 -20 -12 -2 -49 -6 -82 -10 -59 -6 -168 -24 -275 -45 -362 -70
-606 -214 -585 -346 9 -60 37 -98 115 -155 92 -67 344 -167 491 -194 13 -2 56
-11 94 -19 85 -19 232 -43 300 -51 28 -3 61 -8 75 -10 50 -8 117 -15 195 -21
44 -3 96 -7 115 -9 355 -30 1157 -26 1503 9 28 3 84 8 122 11 39 4 77 8 85 10
8 3 42 7 75 10 33 3 103 13 155 21 52 9 109 18 125 20 413 65 814 215 885 330
28 43 25 58 -15 103 -86 94 -366 197 -710 260 -96 17 -147 25 -305 47 -19 2
-48 6 -65 9 -32 5 -107 13 -195 20 -30 3 -77 7 -105 10 -27 2 -93 7 -145 11
-52 3 -120 7 -150 9 -145 11 -1084 27 -1093 19z"/>
</g>
</svg>
