<?xml version="1.0" standalone="no"?>
<!DOCTYPE svg PUBLIC "-//W3C//DTD SVG 20010904//EN"
 "http://www.w3.org/TR/2001/REC-SVG-20010904/DTD/svg10.dtd">
<svg version="1.0" xmlns="http://www.w3.org/2000/svg"
 width="400.000000pt" height="400.000000pt" viewBox="0 0 400.000000 400.000000"
 preserveAspectRatio="xMidYMid meet">
<metadata>
Created by potrace 1.11, written by Peter Selinger 2001-2013
</metadata>
<g transform="translate(0.000000,400.000000) scale(0.100000,-0.100000)"
fill="#000000" stroke="none">
<path d="M1957 3844 c-1 -1 -29 -5 -62 -8 -98 -10 -126 -16 -220 -47 -99 -33
-211 -91 -293 -151 -58 -43 -172 -154 -197 -192 l-16 -24 -67 34 c-175 86
-389 94 -572 22 -366 -145 -541 -557 -394 -927 48 -122 142 -239 255 -317 31
-22 100 -74 154 -116 55 -42 100 -76 101 -75 2 1 5 87 8 191 2 103 7 190 9
193 8 8 24 -29 32 -72 4 -22 8 -193 10 -380 3 -301 7 -479 20 -815 2 -52 6
-183 10 -290 7 -201 11 -296 13 -317 1 -7 12 -3 27 11 75 70 380 178 599 212
21 3 48 8 60 10 60 12 242 35 326 42 186 13 587 6 720 -13 14 -2 50 -6 81 -10
31 -3 67 -8 80 -10 13 -3 41 -7 63 -11 22 -3 43 -7 46 -9 3 -2 21 -6 40 -9
154 -25 391 -113 448 -166 l22 -21 1 48 c0 26 2 91 4 143 2 52 6 185 10 295 3
110 8 243 10 295 2 52 6 192 10 310 10 337 10 332 26 344 53 40 235 181 239
186 3 3 25 18 50 34 89 58 195 183 239 281 7 17 18 38 23 48 24 48 46 189 43
284 -11 331 -247 605 -580 671 -87 18 -279 2 -364 -30 l-23 -8 25 -33 c84
-110 122 -190 111 -233 -12 -45 -52 -22 -136 80 -59 71 -179 205 -224 250
-145 143 -328 240 -534 281 -34 7 -229 23 -233 19z m-126 -1184 c40 -11 82
-46 76 -63 -2 -7 -30 -13 -69 -14 -42 -1 -83 -9 -112 -22 -110 -48 -216 -195
-223 -309 -5 -79 2 -88 63 -72 27 7 87 29 134 49 80 34 86 39 110 86 21 43 30
50 57 53 18 2 43 -4 56 -13 25 -16 26 -29 13 -92 -4 -15 -8 -37 -10 -48 -18
-87 -66 -287 -71 -295 -13 -22 -58 -9 -92 25 -38 38 -37 27 -18 167 l5 37 -58
-26 c-76 -33 -144 -40 -213 -19 -95 29 -132 76 -133 171 0 52 6 75 37 137 87
178 292 291 448 248z m604 -24 c52 -24 120 -86 130 -117 4 -11 9 -19 13 -20 4
-1 31 -3 60 -4 55 -4 82 -17 82 -42 0 -19 -52 -40 -94 -38 -31 2 -35 -1 -46
-37 -20 -68 -65 -130 -135 -184 -125 -98 -252 -106 -335 -23 -47 47 -59 82
-55 151 5 77 54 186 117 258 69 78 170 100 263 56z m265 -493 c38 -32 51 -61
55 -131 6 -91 -43 -234 -114 -333 -246 -341 -768 -519 -1088 -370 -132 62
-245 223 -270 388 -11 73 -7 177 8 209 16 33 59 60 82 51 14 -5 14 -11 1 -54
-83 -276 116 -485 461 -484 98 0 246 34 293 67 2 1 25 60 51 130 26 71 60 152
74 181 32 63 152 208 231 281 104 94 161 112 216 65z"/>
<path d="M2312 2552 c-105 -98 -161 -300 -101 -366 21 -24 175 87 219 158 30
50 40 117 23 157 -34 81 -88 100 -141 51z"/>
<path d="M2601 1999 c-45 -18 -186 -174 -270 -299 -47 -69 -93 -136 -103 -149
-10 -13 -17 -26 -14 -28 15 -15 174 89 265 173 106 98 175 200 187 274 6 37 5
40 -17 39 -13 0 -35 -5 -48 -10z"/>
<path d="M1498 715 c-2 -2 -48 -6 -103 -9 -227 -15 -421 -53 -530 -105 -115
-53 -153 -107 -121 -169 44 -86 299 -179 566 -208 25 -2 56 -6 70 -9 27 -4
155 -15 235 -20 74 -5 531 -5 595 0 30 2 91 7 135 10 225 16 568 75 628 106 9
6 17 7 17 5 0 -3 33 9 73 26 177 75 203 128 94 192 -48 29 -201 81 -279 97
-115 23 -197 36 -268 44 -30 4 -66 8 -80 10 -14 2 -63 6 -110 10 -47 4 -107 9
-135 12 -51 5 -782 12 -787 8z"/>
</g>
</svg>
