<?xml version="1.0" standalone="no"?>
<!DOCTYPE svg PUBLIC "-//W3C//DTD SVG 20010904//EN"
 "http://www.w3.org/TR/2001/REC-SVG-20010904/DTD/svg10.dtd">
<svg version="1.0" xmlns="http://www.w3.org/2000/svg"
 width="180.000000pt" height="180.000000pt" viewBox="0 0 180.000000 180.000000"
 preserveAspectRatio="xMidYMid meet">
<metadata>
Created by potrace 1.11, written by Peter Selinger 2001-2013
</metadata>
<g transform="translate(0.000000,180.000000) scale(0.100000,-0.100000)"
fill="#000000" stroke="none">
<path d="M745 1775 c-16 -8 -38 -21 -48 -29 -21 -16 -45 -89 -42 -126 2 -28
-15 -27 190 -15 66 4 129 9 139 11 11 2 44 4 73 5 32 1 58 8 65 16 20 24 -10
33 -89 26 l-72 -6 -17 41 c-28 71 -127 109 -199 77z"/>
<path d="M1390 1761 c0 -24 -9 -42 -35 -68 -20 -20 -41 -45 -46 -55 -15 -28
-2 -86 21 -98 11 -6 21 -8 21 -5 1 3 2 8 3 13 8 32 20 51 41 62 32 17 58 73
50 109 -3 16 -17 39 -31 51 l-24 23 0 -32z"/>
<path d="M1510 1670 c0 -23 -11 -41 -40 -70 -46 -45 -57 -79 -40 -119 15 -37
40 -49 40 -20 0 11 16 35 36 52 67 59 78 112 34 165 -24 29 -30 28 -30 -8z"/>
<path d="M837 1573 c-2 -1 -120 -10 -164 -12 -26 -2 -7 -96 26 -135 43 -49
125 -62 187 -29 49 25 75 69 77 130 l2 48 -63 0 c-35 0 -64 -1 -65 -2z"/>
<path d="M1192 1533 c-7 -3 -18 -19 -26 -36 -9 -23 -24 -36 -52 -46 -125 -43
-240 -168 -247 -269 l-2 -27 349 -3 349 -2 -7 32 c-10 52 -52 129 -93 173 -43
47 -88 75 -155 100 -32 12 -48 24 -48 35 0 27 -41 52 -68 43z"/>
<path d="M895 1110 c-8 -13 60 -27 120 -25 74 3 122 -10 135 -36 49 -91 -201
-139 -375 -73 -11 5 -12 0 -5 -28 15 -51 12 -110 -10 -179 -38 -126 -96 -182
-251 -244 -45 -19 -90 -42 -101 -53 -22 -21 -58 -148 -58 -204 0 -79 42 -61
121 50 34 48 71 94 81 102 12 10 44 17 86 18 141 5 260 67 322 167 12 19 26
32 33 29 19 -7 97 -126 113 -172 18 -54 11 -148 -20 -271 -14 -51 -22 -99 -19
-106 19 -52 293 -103 310 -58 5 12 -4 26 -32 47 -130 104 -137 121 -92 216 74
159 75 185 9 331 -53 118 -64 148 -76 199 -18 79 -20 181 -3 204 7 10 26 20
42 22 41 4 99 32 112 53 11 18 1 18 -213 18 -124 0 -227 -3 -229 -7z"/>
</g>
</svg>
