<?xml version="1.0" standalone="no"?>
<!DOCTYPE svg PUBLIC "-//W3C//DTD SVG 20010904//EN"
 "http://www.w3.org/TR/2001/REC-SVG-20010904/DTD/svg10.dtd">
<svg version="1.0" xmlns="http://www.w3.org/2000/svg"
 width="512.000000pt" height="512.000000pt" viewBox="0 0 512.000000 512.000000"
 preserveAspectRatio="xMidYMid meet">
<metadata>
Created by potrace 1.11, written by Peter Selinger 2001-2013
</metadata>
<g transform="translate(0.000000,512.000000) scale(0.100000,-0.100000)"
fill="#000000" stroke="none">
<path d="M2350 4845 c-393 -65 -686 -268 -852 -590 -74 -145 -115 -291 -143
-517 l-6 -48 -149 0 -150 0 -31 -28 c-36 -32 -2 130 -334 -1592 -75 -388 -178
-924 -230 -1193 -101 -521 -102 -527 -50 -547 42 -16 4283 -13 4315 3 13 7 28
24 33 37 6 18 -65 402 -253 1375 -144 743 -284 1471 -313 1619 -48 250 -53
271 -80 297 l-29 29 -147 0 -148 0 -12 102 c-67 550 -383 913 -901 1035 -133
31 -388 40 -520 18z m445 -284 c97 -26 228 -87 309 -145 79 -56 192 -175 241
-251 76 -119 135 -304 135 -425 l0 -50 -920 0 -920 0 0 43 c0 142 67 335 165
472 49 68 159 177 225 222 101 68 238 125 358 148 106 20 301 13 407 -14z
m540 -1532 c53 -58 85 -122 101 -200 36 -171 -28 -290 -241 -451 -86 -65 -105
-100 -105 -190 0 -66 -1 -68 -26 -68 -45 0 -110 54 -141 117 -25 52 -28 68
-27 153 0 143 36 210 163 308 42 33 86 70 98 84 40 43 64 113 69 206 8 118 7
117 45 95 17 -10 46 -34 64 -54z m433 -314 c93 -84 138 -195 130 -321 -8 -127
-76 -223 -251 -355 -81 -60 -97 -91 -97 -184 0 -45 -4 -67 -13 -71 -36 -14
-125 53 -159 120 -15 29 -23 66 -26 123 -9 156 30 233 169 343 130 103 159
158 164 310 1 41 3 76 4 78 6 11 37 -5 79 -43z m-1128 -600 c49 -25 86 -85 95
-156 12 -88 11 -86 67 -99 88 -21 218 -69 313 -117 374 -186 621 -501 756
-963 15 -52 24 -98 20 -103 -4 -4 -605 -6 -1337 -5 l-1329 3 2 71 c5 144 74
332 179 491 34 51 104 134 169 199 176 176 389 306 654 399 l115 40 16 71 c26
113 67 166 141 184 40 10 104 3 139 -15z"/>
</g>
</svg>
