<?xml version="1.0" standalone="no"?>
<!DOCTYPE svg PUBLIC "-//W3C//DTD SVG 20010904//EN"
 "http://www.w3.org/TR/2001/REC-SVG-20010904/DTD/svg10.dtd">
<svg version="1.0" xmlns="http://www.w3.org/2000/svg"
 width="1000.000000pt" height="1000.000000pt" viewBox="0 0 1000.000000 1000.000000"
 preserveAspectRatio="xMidYMid meet">
<metadata>
Created by potrace 1.11, written by Peter Selinger 2001-2013
</metadata>
<g transform="translate(0.000000,1000.000000) scale(0.100000,-0.100000)"
fill="#000000" stroke="none">
<path d="M4690 9431 c0 -4 -20 -6 -45 -6 -25 1 -45 -1 -45 -5 0 -3 -10 -6 -22
-6 -13 -1 -41 -4 -63 -9 -22 -4 -49 -9 -60 -10 -11 -2 -20 -4 -20 -5 0 -2 -15
-5 -65 -15 -45 -9 -52 -11 -70 -18 -8 -4 -26 -9 -40 -11 -14 -3 -27 -5 -30 -6
-3 -2 -8 -2 -12 -1 -5 0 -8 -4 -8 -11 0 -6 -3 -8 -7 -5 -3 4 -13 1 -21 -6 -13
-10 -14 -9 -7 3 7 13 6 13 -7 2 -9 -7 -25 -14 -35 -16 -11 -2 -37 -12 -59 -22
-21 -10 -43 -19 -49 -20 -30 -6 -55 -17 -55 -25 0 -5 -3 -8 -7 -7 -15 3 -63
-14 -63 -23 0 -5 -3 -8 -7 -7 -5 1 -19 -3 -33 -9 -14 -6 -29 -12 -35 -14 -5
-1 -16 -9 -23 -16 -7 -7 -20 -13 -28 -13 -8 0 -14 -4 -14 -10 0 -5 -6 -10 -14
-10 -8 0 -22 -7 -30 -16 -9 -8 -16 -12 -16 -7 0 4 -7 -1 -15 -11 -8 -11 -15
-16 -15 -12 0 8 -93 -54 -98 -66 -2 -4 -9 -8 -16 -8 -7 0 -29 -15 -49 -34 -20
-18 -37 -31 -37 -28 0 3 -8 -3 -19 -14 -21 -22 -52 -47 -65 -54 -5 -3 -41 -39
-81 -80 -120 -124 -153 -160 -148 -160 2 0 -2 -7 -9 -15 -45 -50 -115 -148
-122 -173 -5 -13 -10 -21 -13 -18 -3 3 -19 -21 -36 -54 -17 -32 -34 -57 -39
-54 -5 3 -8 2 -7 -3 1 -4 0 -11 -1 -15 -1 -5 -3 -11 -5 -15 -7 -25 -47 -103
-55 -108 -6 -4 -8 -10 -5 -15 3 -5 1 -11 -5 -15 -6 -4 -8 -11 -5 -16 4 -5 1
-9 -4 -9 -6 0 -10 -3 -9 -7 1 -5 -3 -19 -9 -33 -13 -29 -37 -93 -39 -100 -1
-5 -18 -48 -31 -80 -3 -8 -6 -18 -5 -22 1 -4 -3 -20 -10 -35 -6 -15 -12 -35
-14 -43 -3 -19 -12 -53 -14 -60 -1 -3 -3 -9 -5 -15 -1 -5 -3 -12 -4 -15 -2 -3
-4 -18 -6 -33 -1 -16 -8 -32 -15 -37 -9 -5 -9 -9 -1 -15 9 -5 9 -10 0 -21 -6
-7 -9 -20 -6 -29 4 -8 2 -17 -2 -20 -5 -3 -8 -18 -7 -34 1 -17 -1 -28 -5 -25
-4 2 -8 -10 -9 -28 0 -18 -1 -41 -1 -50 0 -10 -3 -18 -7 -18 -4 0 -7 -26 -7
-58 1 -31 -2 -62 -6 -67 -4 -6 -7 -26 -7 -45 1 -58 -3 -96 -9 -82 -2 6 -10 9
-15 6 -14 -9 -78 -11 -78 -3 0 8 -33 5 -48 -5 -7 -4 -12 -2 -12 4 0 6 -5 8
-12 4 -19 -12 -48 -12 -48 0 0 6 -5 4 -10 -4 -6 -10 -10 -11 -10 -3 0 9 -7 10
-26 3 -16 -7 -23 -7 -19 0 4 7 -3 7 -19 0 -19 -7 -26 -6 -26 3 0 7 -3 8 -8 2
-10 -14 -32 -17 -32 -4 0 8 -5 8 -15 -1 -12 -10 -15 -10 -15 1 0 12 -2 12 -9
0 -6 -9 -10 -10 -16 -2 -5 9 -10 9 -20 1 -10 -8 -14 -7 -17 2 -4 10 -8 10 -21
-1 -12 -9 -17 -10 -17 -2 0 7 -5 9 -11 5 -6 -4 -23 -8 -38 -10 -51 -6 -62 -11
-92 -37 -17 -15 -35 -27 -40 -27 -5 0 -9 -7 -9 -15 0 -8 -5 -15 -12 -15 -6 0
-8 -3 -5 -7 4 -3 2 -12 -3 -19 -11 -13 -18 -36 -27 -94 -3 -19 -10 -41 -17
-49 -9 -12 -8 -13 4 -6 12 7 13 6 3 -7 -7 -8 -10 -18 -7 -21 3 -3 2 -12 -2
-19 -5 -7 -9 -24 -10 -38 -1 -14 -2 -25 -3 -25 -1 0 -4 -13 -6 -29 -2 -16 -10
-33 -17 -37 -9 -6 -9 -9 -1 -9 6 0 10 -8 8 -17 -2 -10 -4 -18 -5 -18 -1 0 -3
-10 -6 -22 -2 -13 -6 -33 -8 -45 -3 -13 -5 -23 -6 -23 -2 0 -13 -76 -13 -97
-1 -10 -4 -18 -8 -18 -4 0 -6 -8 -4 -17 1 -10 0 -22 -3 -28 -4 -5 -8 -19 -9
-30 -1 -11 -5 -33 -8 -50 -3 -16 -7 -46 -9 -65 -3 -19 -6 -37 -7 -40 -1 -3 -1
-8 0 -12 0 -5 -3 -8 -7 -8 -5 0 -9 -12 -10 -27 -1 -16 -3 -43 -5 -60 -1 -18
-5 -33 -8 -33 -4 0 -10 -7 -13 -16 -4 -9 -2 -13 5 -8 8 4 8 1 1 -12 -5 -11 -8
-27 -7 -36 2 -10 0 -18 -5 -18 -4 0 -6 -9 -3 -20 3 -11 1 -20 -4 -20 -6 0 -8
-11 -5 -25 2 -14 0 -25 -5 -25 -5 0 -9 -16 -8 -35 1 -19 -1 -35 -6 -35 -4 0
-6 -11 -4 -25 1 -14 -2 -25 -7 -25 -5 0 -6 -4 -3 -10 3 -5 1 -19 -5 -30 -8
-15 -8 -20 1 -20 8 0 9 -4 0 -13 -6 -8 -8 -17 -4 -20 3 -4 1 -7 -6 -7 -8 0
-10 -7 -6 -19 3 -11 1 -22 -5 -26 -8 -5 -8 -10 0 -20 8 -10 8 -15 -1 -21 -8
-5 -9 -3 -4 6 5 9 4 11 -4 6 -9 -6 -9 -11 0 -22 6 -8 7 -14 2 -14 -5 0 -10
-12 -11 -27 -1 -36 -6 -61 -14 -69 -4 -3 -4 -12 -1 -20 3 -8 1 -14 -4 -14 -5
0 -8 -15 -8 -32 1 -18 -1 -37 -4 -43 -3 -5 -6 -17 -7 -25 -2 -41 -17 -90 -28
-90 -7 0 -6 -3 2 -8 10 -7 10 -15 2 -37 -6 -16 -9 -34 -6 -42 3 -7 1 -13 -3
-13 -5 0 -9 -16 -9 -36 0 -20 -6 -40 -13 -45 -11 -7 -11 -9 1 -9 9 0 11 -3 5
-8 -6 -4 -10 -14 -10 -22 1 -8 -1 -19 -4 -25 -3 -5 -6 -19 -7 -30 0 -11 -3
-29 -7 -40 -8 -26 -28 -139 -30 -172 0 -7 -3 -13 -6 -13 -4 0 -7 -15 -9 -32
-3 -55 -14 -108 -21 -108 -3 0 -7 -15 -8 -33 -5 -61 -11 -102 -17 -118 -4 -9
-8 -29 -10 -45 -2 -16 -5 -29 -6 -29 -2 0 -10 -53 -14 -93 -1 -17 -6 -35 -9
-39 -4 -3 -7 -14 -7 -24 0 -9 -6 -20 -12 -22 -9 -4 -9 -6 -1 -6 8 -1 8 -14 -2
-50 -7 -28 -10 -52 -7 -55 3 -3 -1 -6 -9 -6 -11 0 -11 -2 1 -10 8 -5 10 -10 5
-10 -6 0 -12 -10 -12 -22 -2 -31 -10 -77 -21 -113 -5 -16 -8 -39 -6 -50 2 -10
-1 -24 -5 -30 -9 -10 -20 -72 -24 -128 -1 -15 -6 -27 -11 -27 -4 0 -6 -6 -3
-14 3 -8 3 -17 -1 -20 -6 -7 -10 -28 -14 -88 -1 -20 -6 -34 -12 -31 -5 4 -7
-1 -3 -10 3 -9 2 -19 -4 -22 -5 -4 -7 -10 -4 -15 3 -5 1 -28 -4 -52 -15 -68
-22 -100 -28 -138 -3 -19 -9 -43 -14 -53 -7 -11 -6 -17 1 -17 7 0 8 -5 3 -12
-4 -7 -8 -16 -9 -20 -1 -5 -3 -11 -4 -15 -1 -5 -1 -16 0 -27 1 -10 -2 -16 -7
-13 -4 3 -8 -9 -9 -26 0 -18 -4 -48 -9 -67 -4 -19 -8 -44 -9 -55 -1 -11 -4
-24 -8 -30 -3 -5 -4 -18 -3 -28 2 -9 0 -17 -4 -17 -4 0 -8 -6 -8 -12 0 -7 -4
-31 -8 -53 -4 -22 -7 -48 -7 -57 1 -10 -5 -18 -11 -18 -7 0 -6 -4 3 -10 8 -5
10 -10 4 -10 -6 0 -10 -10 -9 -22 1 -13 0 -27 -4 -33 -3 -5 -6 -14 -7 -20 -1
-5 -5 -28 -9 -50 -4 -22 -8 -50 -9 -62 -1 -13 -4 -23 -8 -23 -4 0 -5 -9 -3
-20 2 -11 0 -20 -4 -20 -4 0 -8 -6 -8 -12 -2 -17 -12 -86 -18 -118 -2 -14 -7
-41 -10 -60 -9 -60 -10 -65 -18 -77 -5 -7 -6 -13 -2 -13 3 0 1 -9 -5 -20 -8
-15 -8 -20 2 -20 9 0 9 -3 -2 -10 -8 -5 -12 -10 -8 -10 4 0 1 -19 -6 -43 -7
-24 -12 -51 -10 -60 1 -9 -2 -17 -7 -17 -4 0 -6 -7 -3 -15 4 -8 1 -22 -6 -30
-9 -11 -9 -15 -1 -15 8 0 9 -5 2 -18 -5 -10 -11 -29 -13 -43 -2 -13 -7 -30
-12 -38 -7 -10 -5 -12 3 -6 10 6 11 3 3 -11 -5 -11 -13 -35 -16 -54 -3 -19 -8
-46 -11 -60 -3 -14 -8 -38 -10 -55 -6 -43 -10 -59 -16 -70 -4 -5 -5 -19 -3
-30 1 -10 -1 -24 -5 -30 -5 -5 -7 -18 -6 -27 2 -10 0 -18 -5 -18 -4 0 -6 -10
-2 -22 4 -15 2 -19 -7 -13 -10 6 -11 3 -2 -12 6 -11 7 -24 3 -28 -4 -3 -8 -11
-8 -16 -1 -5 -2 -10 -4 -11 -1 -2 -3 -16 -5 -33 -4 -37 -9 -57 -16 -70 -3 -5
-4 -20 -3 -32 0 -13 -2 -23 -6 -23 -4 0 -6 -13 -5 -30 1 -16 -1 -30 -5 -30 -4
0 -8 -17 -9 -37 -1 -21 -3 -44 -3 -50 -1 -7 -5 -13 -9 -13 -4 0 -7 -10 -7 -22
0 -27 -18 -133 -22 -133 -1 0 -3 -9 -5 -20 -1 -11 -6 -33 -9 -50 -4 -16 -8
-39 -10 -50 -1 -11 -4 -24 -7 -30 -3 -5 -6 -55 -7 -110 -1 -99 -1 -100 29
-127 l30 -28 4238 0 4237 0 31 28 31 27 -3 105 c-5 122 -5 132 -14 145 -4 6
-8 26 -10 45 -2 19 -7 42 -12 51 -5 10 -3 21 4 29 9 10 9 11 0 6 -9 -5 -13 3
-13 28 0 20 -4 36 -8 36 -4 0 -8 10 -9 23 -1 12 -4 42 -8 67 -3 25 -7 53 -8
63 -1 9 -4 17 -8 17 -3 0 -5 14 -4 30 1 17 -1 30 -4 30 -4 0 -8 10 -9 23 -2
24 -10 62 -12 62 -2 0 -12 65 -13 83 0 6 -5 12 -10 12 -5 0 -4 7 3 15 7 8 8
15 3 15 -5 0 -9 8 -10 18 -1 9 -4 31 -7 47 -4 17 -9 46 -12 65 -9 49 -12 65
-15 65 -1 0 -3 9 -5 20 -8 58 -13 84 -22 123 -5 23 -8 42 -5 42 3 0 0 7 -7 15
-10 12 -10 15 1 15 9 0 10 3 4 8 -5 4 -11 12 -12 18 -1 6 -4 22 -7 35 -2 13
-7 42 -11 64 -7 39 -11 56 -19 93 -10 44 -20 108 -18 115 1 4 -3 7 -9 7 -8 0
-8 4 0 14 9 11 9 17 -1 27 -7 8 -14 32 -16 54 -3 57 -5 65 -11 65 -3 0 -7 10
-8 23 -5 74 -7 87 -14 87 -4 0 -6 8 -5 18 2 9 -2 36 -9 59 -10 31 -10 43 -1
47 7 3 7 5 -1 5 -8 1 -13 14 -13 31 0 17 -5 30 -11 30 -8 0 -8 5 1 15 9 10 9
15 1 15 -6 0 -11 18 -11 45 0 25 -4 45 -8 45 -5 0 -8 12 -7 28 1 15 -4 38 -12
51 -9 14 -10 21 -3 16 9 -5 9 -3 2 11 -5 11 -13 42 -17 69 -4 28 -12 56 -18
64 -10 12 -9 13 2 6 11 -6 13 -4 6 11 -4 10 -9 28 -10 39 -2 11 -4 20 -5 20
-2 0 -4 18 -5 40 -1 21 -7 41 -12 42 -5 2 -8 17 -7 33 1 17 -1 30 -5 30 -4 0
-6 14 -5 30 1 17 -1 30 -5 30 -4 0 -8 16 -9 35 -1 20 -4 40 -7 44 -6 10 -16
74 -18 114 -1 15 -4 27 -7 27 -3 0 -6 8 -7 18 -2 22 -8 52 -29 154 -9 46 -17
93 -18 106 0 12 -3 22 -6 22 -5 0 -10 37 -13 88 0 6 -5 12 -11 12 -6 0 -4 5 4
10 12 8 12 10 1 10 -8 0 -11 7 -8 20 3 11 1 20 -3 20 -5 0 -7 9 -5 20 2 11 1
20 -3 20 -5 0 -8 12 -9 27 -1 49 -7 83 -15 83 -4 0 -7 8 -6 18 0 9 -3 35 -7
57 -4 22 -9 54 -10 70 -2 17 -4 31 -5 33 -2 1 -3 5 -4 10 -1 4 -5 13 -10 20
-4 8 -2 20 6 29 9 12 9 15 1 9 -9 -5 -13 1 -14 21 -1 15 -1 31 0 36 0 4 -3 7
-7 7 -4 0 -9 15 -10 33 -1 30 -8 72 -12 72 -2 0 -10 37 -14 70 -3 17 -5 30 -6
30 -2 0 -12 68 -13 93 -1 12 -5 22 -9 22 -4 0 -7 3 -6 7 2 9 -10 95 -19 128
-2 11 -5 30 -6 43 0 12 -5 22 -11 22 -5 0 -7 3 -3 6 3 3 2 17 -3 30 -7 17 -6
24 3 24 7 1 6 5 -4 13 -12 9 -14 18 -8 35 6 17 5 24 -6 28 -10 4 -12 11 -6 22
6 10 4 21 -6 30 -12 12 -12 16 -1 23 8 6 9 9 1 9 -6 0 -10 13 -9 31 1 16 -2
33 -7 36 -4 3 -6 11 -3 19 3 8 0 14 -5 14 -6 0 -9 9 -6 20 3 11 1 20 -3 20 -4
0 -6 9 -3 20 3 11 0 20 -6 20 -8 0 -9 6 -2 18 6 12 5 23 -4 35 -7 10 -12 31
-11 48 1 16 -2 29 -6 29 -5 0 -8 12 -8 28 0 42 -3 62 -10 62 -4 0 -7 12 -8 28
-1 15 -4 38 -7 52 -3 14 -8 41 -11 60 -9 48 -12 65 -14 65 -1 0 -4 11 -6 25
-4 32 -12 75 -14 75 -1 0 -3 16 -5 36 -1 20 -7 45 -12 55 -5 10 -8 29 -7 42 0
12 -2 25 -6 27 -5 3 -6 14 -3 25 3 12 0 20 -7 20 -9 0 -9 4 1 17 12 14 12 16
0 8 -11 -6 -13 -3 -9 13 4 12 2 22 -3 22 -4 0 -6 6 -3 14 3 8 1 24 -6 35 -8
16 -8 21 2 21 10 0 10 2 0 9 -7 4 -15 23 -18 42 -3 19 -7 43 -8 54 -2 11 -5
20 -6 20 -1 0 -3 11 -4 25 0 14 -5 31 -10 39 -7 11 -6 12 5 6 12 -8 12 -6 1 8
-8 9 -11 21 -7 27 3 5 2 10 -4 10 -6 0 -8 6 -5 14 3 8 1 24 -6 35 -8 16 -8 21
2 21 9 0 9 3 -2 10 -8 5 -11 10 -6 10 5 0 4 6 -1 13 -5 6 -8 22 -7 35 0 12 -2
22 -5 22 -4 0 -8 16 -9 37 -2 20 -6 41 -9 47 -7 11 -9 21 -14 84 -2 17 -6 32
-9 32 -3 0 -7 10 -7 23 -5 73 -7 88 -15 93 -4 3 -8 16 -8 30 0 13 -4 24 -10
24 -5 0 -10 5 -10 11 0 14 -64 79 -78 79 -5 0 -14 6 -21 13 -6 7 -26 13 -46
12 -20 -1 -35 3 -35 9 0 6 -5 4 -10 -4 -8 -12 -10 -12 -10 -1 0 11 -3 11 -17
0 -12 -11 -17 -11 -20 -2 -3 9 -12 9 -29 3 -17 -7 -23 -7 -19 0 4 7 -3 7 -19
0 -19 -7 -26 -6 -26 3 0 7 -3 8 -8 2 -10 -14 -32 -17 -32 -5 0 7 -6 7 -19 0
-13 -7 -22 -7 -26 0 -3 5 -11 10 -16 10 -6 0 -8 -4 -5 -8 3 -5 -1 -9 -9 -9 -8
0 -15 5 -15 11 0 6 -5 4 -10 -4 -9 -13 -10 -13 -10 0 0 9 -3 11 -8 5 -9 -13
-42 -16 -42 -4 0 6 -8 5 -19 -1 -14 -7 -22 -7 -27 1 -4 8 -9 7 -15 -2 -7 -11
-9 -11 -9 -1 0 10 -5 10 -20 2 -15 -8 -20 -8 -20 1 0 9 -3 9 -14 0 -19 -16
-23 -7 -30 74 -10 106 -12 121 -21 135 -5 9 -4 11 3 6 7 -4 12 -2 12 3 0 6 -4
11 -8 11 -4 0 -7 12 -7 28 1 15 -4 33 -9 41 -9 12 -8 13 4 6 13 -8 13 -6 2 8
-8 9 -11 20 -8 25 3 5 -1 21 -9 36 -8 14 -10 24 -5 21 5 -3 8 4 7 15 -1 11 -5
20 -10 20 -5 0 -7 9 -4 20 3 11 2 20 -2 20 -4 0 -7 10 -8 23 -1 46 -3 58 -11
53 -4 -2 -9 5 -9 17 -3 46 -8 67 -16 67 -4 0 -5 5 -2 10 3 6 3 16 -2 23 -4 6
-8 15 -9 20 -1 4 -3 10 -4 15 -1 4 -3 12 -4 17 -3 27 -42 131 -51 137 -5 4 -6
8 -1 8 5 0 3 7 -4 15 -7 8 -9 15 -4 15 4 0 3 5 -4 12 -7 7 -12 20 -12 30 0 10
-4 18 -10 18 -5 0 -10 6 -10 14 0 22 -51 126 -61 126 -6 0 -8 4 -5 8 3 5 -11
35 -30 68 -19 32 -37 67 -40 77 -4 9 -10 17 -15 17 -5 0 -9 7 -9 15 0 8 -4 15
-10 15 -5 0 -10 7 -10 15 0 8 -4 15 -10 15 -5 0 -10 6 -10 13 0 6 -14 28 -30
47 -16 19 -33 40 -37 45 -59 76 -83 105 -110 133 -18 18 -33 37 -33 42 0 6 -4
10 -10 10 -13 0 -56 43 -52 53 1 4 -3 7 -9 7 -7 0 -19 8 -28 18 -9 9 -41 38
-71 62 -30 25 -56 48 -58 53 -2 4 -8 7 -13 7 -5 0 -20 10 -35 23 -14 12 -28
21 -31 19 -2 -2 -13 6 -22 17 -10 11 -20 18 -23 16 -3 -3 -11 1 -18 10 -7 8
-19 15 -26 15 -8 0 -14 5 -14 11 0 5 -13 15 -30 20 -16 6 -30 15 -30 20 0 5
-9 9 -19 9 -11 0 -21 3 -23 8 -1 4 -49 30 -106 59 -56 28 -99 46 -96 40 3 -7
0 -5 -8 4 -7 9 -19 14 -25 12 -7 -3 -13 0 -13 6 0 6 -7 8 -15 5 -8 -4 -15 -1
-15 5 0 6 -3 11 -7 10 -5 -1 -19 2 -33 7 -14 4 -27 6 -29 5 -2 -2 -7 2 -10 8
-4 6 -19 12 -34 13 -15 1 -27 6 -27 10 0 4 -10 8 -23 8 -13 0 -28 5 -35 12 -7
7 -12 8 -12 4 0 -5 -8 -2 -17 5 -15 12 -16 12 -8 -1 7 -12 6 -13 -7 -3 -8 7
-18 10 -21 6 -4 -3 -7 -2 -7 4 0 10 -8 12 -60 15 -16 1 -30 5 -30 8 0 4 -6 7
-12 8 -56 5 -90 13 -108 22 -15 8 -20 8 -20 -2 0 -9 -3 -10 -8 -2 -4 6 -15 10
-24 8 -10 -1 -18 1 -18 4 0 4 -15 8 -32 10 -77 6 -698 10 -698 3z m253 -524
c-4 -6 -1 -7 8 -1 19 12 132 11 141 -1 5 -6 8 -5 8 3 0 7 5 10 11 7 6 -4 34
-9 62 -11 46 -3 111 -10 157 -17 8 -2 20 -5 25 -8 6 -4 20 -5 33 -4 12 1 22
-1 22 -5 0 -4 6 -7 13 -8 36 -3 64 -10 82 -19 22 -12 26 -13 56 -13 11 0 18
-3 16 -7 -3 -5 9 -9 26 -10 17 -1 34 -8 39 -15 4 -7 8 -9 8 -4 0 5 7 3 15 -4
8 -6 19 -9 25 -5 5 3 10 1 10 -4 0 -6 9 -11 20 -11 11 0 20 -4 20 -10 0 -5 7
-10 15 -10 8 0 34 -11 58 -25 25 -13 47 -21 51 -18 3 4 6 2 6 -4 0 -6 18 -18
40 -27 22 -9 40 -21 40 -28 0 -6 3 -8 6 -5 4 4 24 -7 44 -23 21 -17 43 -30 48
-30 6 0 18 -10 27 -22 8 -13 17 -21 18 -18 4 6 67 -42 115 -87 18 -18 35 -33
36 -33 5 0 131 -127 133 -134 1 -4 19 -27 40 -51 41 -47 90 -115 92 -127 0 -5
9 -16 19 -26 11 -11 25 -33 33 -50 8 -18 18 -32 22 -32 5 0 5 -5 2 -10 -3 -6
1 -13 9 -16 9 -3 14 -10 11 -14 -3 -5 -1 -11 5 -15 6 -4 8 -11 5 -16 -4 -5 -1
-9 4 -9 6 0 11 -7 11 -15 0 -8 5 -15 10 -15 6 0 9 -3 8 -7 -3 -16 15 -63 24
-63 5 0 6 -4 3 -10 -3 -5 -2 -10 2 -10 5 0 10 -12 11 -27 1 -16 7 -30 12 -31
6 -2 8 -8 4 -13 -3 -5 -1 -9 4 -9 6 0 8 -9 5 -20 -3 -11 0 -20 6 -20 6 0 10
-3 9 -7 -2 -8 18 -86 29 -113 6 -17 13 -64 14 -97 1 -13 5 -23 9 -23 4 0 6
-13 5 -30 -1 -17 2 -30 9 -30 6 0 4 -5 -4 -10 -8 -5 -10 -10 -4 -10 6 0 10
-10 9 -22 -1 -13 3 -26 9 -30 7 -5 6 -8 -3 -8 -10 0 -11 -3 -2 -14 8 -10 9
-16 1 -21 -6 -3 -7 -12 -3 -18 4 -7 8 -33 9 -59 1 -38 -2 -47 -17 -51 -11 -3
-19 0 -19 6 0 8 -3 8 -8 2 -4 -5 -18 -10 -32 -10 -14 0 -28 5 -32 10 -5 6 -8
6 -8 -1 0 -6 -7 -11 -15 -11 -8 0 -15 5 -15 11 0 7 -3 8 -8 1 -9 -13 -105 -13
-114 0 -5 7 -8 7 -8 0 0 -6 -138 -10 -392 -10 -251 0 -396 4 -400 10 -5 6 -8
6 -8 -1 0 -6 -7 -11 -15 -11 -8 0 -15 5 -15 11 0 7 -3 8 -8 1 -9 -13 -105 -13
-114 0 -5 7 -8 7 -8 0 0 -6 -138 -10 -392 -10 -251 0 -396 4 -400 10 -5 6 -8
6 -8 -1 0 -6 -7 -11 -15 -11 -8 0 -15 5 -15 11 0 7 -3 8 -8 1 -9 -13 -105 -13
-114 0 -5 7 -8 7 -8 0 0 -6 -138 -10 -392 -10 -251 0 -396 4 -400 10 -5 6 -8
6 -8 -1 0 -6 -7 -11 -15 -11 -8 0 -15 5 -15 11 0 7 -3 8 -8 1 -9 -13 -105 -13
-114 0 -5 7 -8 7 -8 0 0 -6 -80 -9 -222 -8 -123 1 -226 2 -230 2 -10 1 -6 94
4 108 5 7 5 14 -2 18 -8 5 -8 11 1 21 9 11 9 14 0 14 -7 0 -9 5 -4 13 4 6 8
17 9 23 6 36 17 132 18 147 0 9 4 17 9 17 5 0 7 9 4 20 -3 11 -1 22 3 25 5 3
7 14 5 25 -2 11 -1 20 3 20 4 0 9 12 10 26 1 15 7 33 13 40 6 8 8 14 5 14 -4
0 -1 10 6 23 7 12 13 27 13 32 1 6 5 19 9 30 17 42 19 50 18 58 -1 4 3 7 10 7
6 0 8 3 5 6 -4 4 3 20 14 35 11 16 18 29 14 29 -11 0 112 212 127 218 5 2 8 9
8 16 0 7 9 21 20 31 10 9 18 20 17 24 -1 3 2 6 6 6 5 0 14 10 20 21 22 41 172
206 179 199 3 -3 11 6 18 20 7 14 18 25 24 25 7 0 18 8 27 18 8 9 30 28 48 42
19 14 42 33 52 43 11 9 19 14 19 11 0 -3 17 8 39 25 21 17 41 28 45 24 3 -3 6
-1 6 5 0 10 10 16 90 57 19 10 38 22 41 27 3 5 12 11 20 12 8 2 28 8 44 15 17
7 31 11 31 9 1 -2 12 6 24 17 12 11 25 19 29 18 11 -4 51 9 51 16 0 4 9 8 20
9 43 4 50 6 50 12 0 7 13 11 85 27 31 7 39 9 56 17 9 4 20 6 25 5 5 -1 11 0
14 1 13 5 48 12 75 15 17 2 32 4 35 5 3 1 9 2 14 1 4 -1 13 3 20 8 7 6 17 6
26 1 8 -5 21 -5 30 0 9 5 28 7 43 6 15 -2 29 -1 31 3 2 3 20 6 40 7 20 0 32
-4 29 -9z m1425 -2931 c12 -4 22 -12 22 -17 0 -5 5 -9 11 -9 7 0 25 -13 40
-30 16 -16 29 -27 29 -23 0 4 18 -11 40 -32 22 -21 40 -43 40 -47 0 -4 8 -17
18 -27 31 -35 60 -78 68 -103 4 -10 11 -18 16 -18 6 0 8 -7 4 -15 -3 -8 -1
-15 4 -15 7 0 33 -61 35 -82 0 -3 3 -10 8 -14 4 -4 7 -20 7 -36 0 -15 4 -28 9
-28 5 0 7 -13 6 -30 -1 -16 0 -30 4 -30 4 0 6 -50 6 -111 -1 -85 -4 -112 -15
-119 -8 -6 -10 -10 -4 -10 6 0 11 -7 11 -15 0 -8 -4 -15 -9 -15 -4 0 -7 -3 -6
-7 4 -16 -14 -53 -25 -53 -7 0 -6 -4 3 -10 11 -7 11 -10 2 -10 -7 0 -10 -4 -7
-10 3 -5 -1 -20 -10 -33 -8 -13 -12 -27 -8 -32 5 -4 3 -5 -3 -2 -6 3 -18 -9
-27 -28 -9 -19 -21 -35 -27 -35 -5 0 -9 -4 -7 -9 4 -14 -95 -131 -112 -131 -5
0 -13 -9 -16 -21 -4 -11 -9 -18 -12 -15 -3 2 -18 -11 -35 -30 -17 -19 -35 -34
-40 -34 -6 0 -19 -11 -30 -26 -11 -14 -22 -23 -25 -20 -7 7 -32 -18 -26 -26 2
-5 -3 -8 -13 -8 -9 0 -38 -18 -65 -41 -27 -22 -53 -38 -59 -34 -6 4 -9 2 -8
-3 2 -5 -9 -21 -24 -35 -15 -14 -24 -28 -21 -31 4 -3 0 -6 -8 -6 -17 0 -52
-76 -43 -92 4 -7 2 -8 -4 -4 -8 5 -12 -1 -13 -16 0 -13 -3 -39 -5 -58 -3 -19
-6 -50 -7 -67 -1 -18 -5 -33 -9 -33 -9 0 3 -44 15 -52 16 -10 -11 -64 -36 -75
-25 -11 -57 -6 -57 8 0 6 -4 7 -10 4 -5 -3 -10 -1 -10 5 0 6 -4 9 -9 6 -4 -3
-19 6 -31 19 -13 14 -29 25 -35 25 -12 0 -85 64 -85 75 0 3 -6 12 -12 20 -32
33 -48 56 -48 70 0 8 -5 15 -11 15 -5 0 -7 5 -4 10 3 6 1 10 -5 10 -6 0 -8 4
-5 10 3 5 0 19 -8 31 -8 11 -13 29 -10 40 3 10 1 19 -5 19 -5 0 -10 16 -10 36
0 20 -4 39 -8 43 -13 9 -16 31 -4 31 6 0 6 9 0 25 -6 15 -6 26 1 30 5 4 6 12
2 18 -10 17 -10 39 0 61 5 10 9 36 9 58 -1 21 4 38 9 38 5 0 7 11 5 25 -3 14
0 25 5 25 6 0 8 4 4 9 -3 5 0 13 6 16 5 4 8 13 5 21 -3 9 1 14 12 14 15 0 15
2 2 10 -11 7 -11 10 -2 10 7 0 10 5 7 10 -3 6 -2 10 3 10 5 0 15 12 22 28 38
75 200 241 257 263 14 5 22 13 19 17 -2 4 7 13 22 20 15 6 45 28 66 47 22 19
44 35 48 35 5 0 7 4 3 9 -3 5 4 12 15 16 11 4 18 11 15 16 -4 5 0 12 9 15 8 3
19 19 25 35 5 16 15 29 21 29 6 0 9 4 5 9 -3 5 -1 12 5 16 6 4 8 10 5 15 -3 5
-1 11 5 15 6 4 8 11 5 16 -4 5 -1 9 4 9 6 0 11 11 11 24 0 14 5 28 11 31 6 4
8 13 5 21 -3 7 -1 16 4 19 5 3 6 20 3 39 -3 18 -1 36 5 40 6 3 8 16 4 28 -4
16 -2 19 8 13 10 -6 11 -4 4 6 -11 18 -12 169 -1 169 4 0 4 8 -1 17 -7 11 -6
23 1 34 11 17 17 18 55 5z m889 -649 c4 -6 21 -19 38 -27 32 -16 70 -50 58
-51 -5 0 2 -4 15 -9 12 -5 22 -17 22 -25 0 -9 3 -14 8 -12 8 5 33 -18 26 -25
-2 -3 7 -10 20 -18 14 -7 30 -26 37 -41 6 -16 15 -29 19 -29 4 0 11 -11 14
-25 4 -17 11 -23 19 -19 7 4 9 4 5 -1 -4 -4 -3 -14 3 -22 6 -7 8 -13 4 -13 -5
0 -1 -8 7 -17 15 -17 26 -45 29 -68 0 -5 5 -15 11 -22 5 -7 7 -17 3 -23 -3 -5
-1 -10 6 -10 7 0 10 -11 7 -28 -2 -16 2 -34 8 -40 9 -8 10 -21 4 -41 -5 -18
-4 -33 3 -40 17 -17 21 -45 14 -93 -2 -16 0 -28 6 -28 5 0 4 -6 -2 -14 -7 -8
-14 -25 -16 -38 -7 -51 -18 -88 -26 -88 -5 0 -6 -7 -3 -15 4 -8 2 -15 -3 -15
-5 0 -9 -10 -10 -22 -1 -11 -6 -24 -10 -27 -4 -3 -9 -13 -11 -21 -2 -8 -14
-29 -28 -47 -13 -17 -24 -34 -24 -37 0 -3 -10 -17 -22 -32 -13 -14 -23 -29
-24 -32 -1 -13 -151 -157 -177 -171 -15 -8 -27 -21 -27 -28 0 -8 -4 -12 -8 -9
-5 3 -20 -5 -33 -17 -13 -12 -27 -21 -31 -20 -4 2 -12 -6 -18 -17 -6 -11 -16
-20 -22 -20 -6 0 -16 -7 -22 -14 -6 -8 -18 -16 -26 -18 -19 -4 -39 -21 -34
-29 2 -4 -11 -14 -29 -23 -17 -8 -29 -16 -24 -16 4 0 -1 -9 -10 -19 -34 -37
-44 -51 -36 -51 4 0 2 -5 -4 -11 -6 -6 -9 -18 -6 -25 3 -8 1 -14 -4 -14 -5 0
-9 -10 -8 -22 1 -13 -4 -30 -12 -40 -8 -9 -10 -18 -6 -21 9 -6 8 -146 0 -177
-15 -55 -44 -61 -99 -20 -17 13 -27 16 -23 9 7 -11 4 -11 -11 1 -10 8 -22 20
-26 25 -4 6 -8 6 -8 2 0 -4 -18 10 -40 31 -21 22 -41 38 -43 36 -2 -2 -10 7
-17 21 -7 14 -17 25 -22 25 -4 0 -8 7 -8 15 0 8 -4 15 -10 15 -5 0 -10 9 -10
20 0 11 -4 20 -9 20 -8 0 -12 10 -28 60 -2 8 -5 21 -5 28 -1 6 -5 12 -10 12
-5 0 -7 16 -5 35 3 23 0 35 -8 35 -12 0 -14 28 -3 46 4 5 3 16 -2 24 -5 8 -5
21 1 31 6 11 5 20 -1 24 -7 4 -7 13 0 26 6 10 7 19 2 19 -5 0 -8 10 -6 23 2
12 6 40 9 62 4 22 9 47 12 55 3 8 7 22 8 30 4 25 10 45 15 50 10 10 44 85 42
93 -1 4 5 10 13 13 8 4 15 11 15 18 0 6 15 27 33 46 17 20 34 40 37 45 2 6 28
28 57 51 29 23 50 44 46 48 -6 6 11 9 22 4 2 -2 12 7 20 20 9 12 22 22 29 22
8 0 17 7 20 16 4 9 9 15 12 12 4 -5 41 23 85 65 11 9 19 15 19 12 0 -3 9 4 20
15 11 11 20 25 20 30 0 6 5 10 10 10 6 0 10 7 10 15 0 8 5 15 10 15 6 0 10 6
10 13 0 7 9 23 19 34 11 12 17 23 14 27 -3 3 0 12 6 20 7 8 10 20 6 26 -3 5
-1 10 5 10 7 0 10 6 7 14 -3 8 0 22 8 32 9 13 10 23 3 31 -7 9 -7 13 2 13 8 0
11 9 8 25 -3 14 -2 25 2 25 4 0 5 11 2 25 -2 15 0 25 8 25 14 0 10 71 -5 82
-7 5 -6 8 0 8 6 0 10 12 9 28 0 15 4 30 10 34 8 5 7 8 -1 8 -7 0 -10 7 -7 15
4 8 1 15 -5 15 -18 0 -13 28 9 50 23 23 36 25 47 7z m-2327 -1228 c0 -5 4 -7
10 -4 17 11 50 14 50 5 0 -5 14 -4 32 1 42 12 51 11 43 -1 -3 -5 3 -10 15 -10
47 0 133 -57 175 -114 11 -16 26 -34 33 -42 7 -7 13 -17 12 -21 0 -4 7 -16 15
-25 8 -10 10 -18 5 -18 -6 0 -6 -9 1 -22 24 -45 26 -53 23 -75 -2 -13 1 -23 7
-23 5 0 8 -4 4 -9 -3 -5 -1 -12 5 -16 6 -4 7 -12 3 -18 -11 -18 -13 -57 -2
-57 5 0 9 -14 9 -31 0 -26 3 -31 20 -26 12 3 20 0 20 -7 0 -7 14 -14 30 -15
59 -3 68 -5 64 -13 -3 -4 9 -8 25 -8 17 0 31 -4 31 -8 0 -4 8 -8 18 -9 42 -3
60 -8 56 -14 -2 -4 5 -9 16 -12 11 -3 20 -1 20 5 0 5 5 6 10 3 6 -4 8 -9 6
-13 -2 -4 7 -8 20 -8 13 -1 41 -10 60 -19 20 -9 42 -18 48 -19 28 -5 56 -18
56 -26 0 -4 11 -7 25 -5 14 1 25 -1 25 -5 0 -8 42 -27 70 -32 8 -2 18 -7 22
-13 4 -5 11 -10 15 -11 21 -3 93 -38 93 -46 0 -4 11 -8 24 -8 13 0 27 -7 30
-16 3 -8 10 -13 15 -10 5 3 11 -1 15 -9 3 -8 12 -15 21 -15 17 0 51 -18 73
-37 7 -7 20 -13 27 -13 8 0 18 -6 22 -14 4 -7 22 -20 39 -29 17 -9 36 -23 43
-31 7 -9 17 -13 22 -10 5 3 9 0 9 -5 0 -6 8 -11 18 -11 14 0 15 -2 2 -10 -13
-8 -12 -10 3 -10 18 0 29 -7 72 -48 14 -13 25 -20 25 -16 0 4 14 -7 30 -25 17
-17 34 -31 40 -31 5 0 14 -8 19 -17 6 -10 11 -15 11 -11 0 9 70 -62 70 -72 0
-5 9 -12 20 -15 11 -4 18 -11 15 -16 -4 -5 1 -9 9 -9 8 0 18 -9 21 -20 3 -11
10 -20 15 -20 8 0 71 -59 80 -76 3 -5 9 -8 13 -6 5 1 6 -2 3 -7 -4 -5 4 -18
17 -28 23 -18 27 -24 27 -44 0 -5 5 -7 10 -4 6 3 10 0 10 -7 0 -7 9 -19 20
-26 11 -7 20 -17 20 -22 0 -10 20 -37 52 -71 9 -9 14 -20 11 -23 -4 -3 -1 -6
5 -6 7 0 12 -7 12 -15 0 -8 5 -15 10 -15 6 0 10 -7 10 -15 0 -8 5 -15 10 -15
6 0 10 -7 10 -15 0 -8 5 -15 10 -15 6 0 10 -7 10 -15 0 -8 5 -15 11 -15 5 0 7
-4 4 -10 -3 -5 -1 -10 4 -10 6 0 11 -7 11 -15 0 -7 8 -19 18 -24 9 -6 13 -11
9 -11 -5 0 1 -12 12 -26 11 -15 18 -30 15 -35 -3 -5 -2 -9 3 -9 9 0 36 -56 31
-65 -2 -4 5 -11 15 -16 9 -6 15 -14 12 -20 -4 -5 1 -12 9 -15 9 -3 13 -10 11
-15 -3 -5 1 -19 10 -32 8 -13 12 -27 8 -30 -3 -4 -1 -7 5 -7 6 0 16 -17 23
-37 6 -21 16 -41 21 -44 5 -3 10 -15 13 -27 2 -11 8 -29 14 -40 6 -11 7 -22 4
-26 -3 -3 -1 -6 5 -6 7 0 12 -8 12 -18 0 -10 5 -23 12 -30 7 -7 8 -12 4 -12
-5 0 -3 -6 3 -14 11 -13 22 -46 23 -73 1 -7 5 -13 10 -13 5 0 6 -4 3 -10 -3
-5 -2 -10 4 -10 6 0 8 -7 5 -15 -4 -8 -1 -15 6 -15 6 0 9 -4 5 -9 -3 -5 -1
-13 5 -16 6 -4 8 -15 5 -26 -4 -11 -2 -19 4 -19 6 0 11 -11 11 -25 0 -14 4
-25 10 -25 5 0 7 -7 4 -15 -4 -8 -1 -15 6 -15 7 0 10 -6 7 -14 -3 -7 1 -32 9
-55 8 -24 12 -46 9 -51 -3 -5 0 -12 7 -17 7 -4 14 -17 14 -28 1 -11 5 -28 9
-37 5 -13 1 -20 -16 -27 -13 -5 -19 -11 -14 -12 6 -1 -3 -5 -20 -8 -16 -4 -40
-4 -53 1 -14 5 -21 4 -17 -1 3 -6 -4 -9 -15 -8 -11 1 -20 5 -20 10 0 5 -7 4
-15 -3 -11 -9 -18 -10 -28 -1 -8 6 -17 8 -20 4 -12 -11 -57 -12 -57 -1 0 6 -6
6 -15 -2 -11 -9 -18 -10 -28 -1 -8 6 -17 8 -21 4 -10 -10 -46 -11 -46 -1 0 5
-5 6 -12 2 -14 -9 -218 -12 -218 -3 0 3 -7 6 -15 6 -8 0 -12 -4 -9 -8 2 -4 -5
-7 -16 -6 -11 1 -20 5 -20 10 0 5 -7 4 -15 -3 -11 -9 -18 -10 -28 -1 -8 6 -17
8 -20 5 -10 -11 -97 -12 -91 -2 4 6 -3 5 -15 -2 -16 -8 -26 -8 -35 -1 -7 6
-16 8 -19 4 -10 -9 -138 -10 -165 -1 -14 5 -21 4 -17 -1 3 -6 -4 -9 -15 -8
-11 1 -20 5 -20 10 0 5 -7 4 -15 -3 -11 -9 -18 -10 -28 -1 -8 6 -17 8 -20 4
-12 -11 -57 -12 -57 -1 0 6 -6 6 -15 -2 -11 -9 -18 -10 -28 -1 -8 6 -17 8 -21
4 -10 -10 -46 -11 -46 -1 0 5 -5 6 -12 2 -14 -9 -218 -12 -218 -3 0 3 -7 6
-15 6 -8 0 -12 -4 -9 -8 2 -4 -5 -7 -16 -6 -11 1 -20 5 -20 10 0 5 -7 4 -15
-3 -11 -9 -18 -10 -28 -1 -8 6 -17 8 -20 5 -10 -11 -97 -12 -91 -2 4 6 -3 5
-15 -2 -16 -8 -26 -8 -35 -1 -7 6 -16 8 -19 4 -10 -9 -138 -10 -165 -1 -14 5
-21 4 -17 -1 3 -6 -4 -9 -15 -8 -11 1 -20 5 -20 10 0 5 -7 4 -15 -3 -11 -9
-18 -10 -28 -1 -8 6 -17 8 -20 4 -12 -11 -57 -12 -57 -1 0 6 -6 6 -15 -2 -11
-9 -18 -10 -28 -1 -8 6 -17 8 -21 4 -10 -11 -46 -11 -46 0 0 6 -5 6 -12 1 -15
-10 -326 -11 -352 -1 -10 4 -14 3 -11 -3 3 -5 -4 -8 -15 -7 -11 1 -20 5 -20
10 0 5 -7 4 -15 -3 -11 -9 -18 -10 -28 -1 -8 6 -17 8 -20 4 -12 -11 -57 -12
-57 -1 0 6 -6 6 -15 -2 -11 -9 -18 -10 -28 -1 -8 6 -17 8 -21 4 -10 -10 -46
-11 -46 -1 0 5 -5 6 -12 2 -14 -9 -218 -12 -218 -3 0 3 -7 6 -15 6 -8 0 -12
-4 -9 -8 2 -4 -5 -7 -16 -6 -11 1 -20 5 -20 10 0 5 -7 4 -15 -3 -11 -9 -18
-10 -28 -1 -8 6 -17 8 -20 5 -10 -11 -97 -12 -91 -2 4 6 -3 5 -15 -2 -16 -8
-26 -8 -35 -1 -7 6 -16 8 -19 4 -10 -9 -138 -10 -165 -1 -14 5 -21 4 -17 -1 3
-6 -4 -9 -15 -8 -11 1 -20 5 -20 10 0 5 -7 4 -15 -3 -11 -9 -18 -10 -28 -1 -8
6 -17 8 -20 4 -12 -11 -57 -12 -57 -1 0 6 -6 6 -15 -2 -11 -9 -18 -10 -28 -1
-8 6 -17 8 -21 4 -10 -10 -46 -11 -46 -1 0 5 -5 6 -12 2 -14 -9 -218 -12 -218
-3 0 3 -7 6 -15 6 -8 0 -12 -4 -9 -8 2 -4 -5 -7 -16 -6 -11 1 -20 5 -20 10 0
5 -7 4 -15 -3 -11 -9 -18 -10 -28 -1 -8 6 -17 8 -20 5 -10 -11 -97 -12 -91 -2
4 6 -3 5 -15 -2 -16 -8 -26 -8 -35 -1 -7 6 -16 8 -19 4 -10 -9 -138 -10 -165
-1 -14 5 -21 4 -17 -1 3 -6 -4 -9 -15 -8 -11 1 -20 5 -20 10 0 5 -7 4 -15 -3
-11 -9 -18 -10 -28 -1 -8 6 -17 8 -20 4 -12 -11 -57 -12 -57 -1 0 6 -6 6 -15
-2 -11 -9 -18 -10 -28 -1 -8 6 -17 8 -21 4 -10 -10 -46 -11 -46 -1 0 5 -5 6
-12 2 -21 -13 -330 -10 -335 3 -3 6 -10 10 -16 8 -7 -3 -21 7 -31 22 -11 14
-14 23 -8 19 7 -4 12 -3 12 3 0 5 -5 13 -10 16 -8 5 -7 11 1 21 6 7 13 39 15
71 7 108 11 132 24 148 7 8 8 15 3 15 -5 0 -10 7 -10 15 0 8 4 15 9 15 5 0 7
4 4 9 -4 5 0 11 6 14 10 3 10 7 -1 20 -9 12 -10 17 -2 17 7 0 9 5 6 10 -3 6
-1 10 5 10 7 0 10 7 7 15 -4 8 -2 17 4 20 5 4 7 10 4 15 -3 5 -1 12 5 15 6 4
8 15 5 26 -4 11 -2 19 5 19 6 0 9 4 5 9 -3 5 -1 12 5 16 6 4 8 11 5 16 -4 5
-2 9 3 9 5 0 9 6 10 13 2 22 8 42 19 62 6 11 12 23 12 27 1 4 9 25 18 45 9 21
16 44 16 51 0 6 3 10 5 7 3 -3 15 21 28 52 13 31 27 59 32 62 4 3 18 27 31 53
12 25 29 52 37 58 7 7 14 17 14 23 0 5 11 25 25 43 14 18 25 37 25 43 0 6 5
11 10 11 6 0 10 7 10 16 0 8 5 12 10 9 6 -3 10 -1 10 4 0 20 10 35 72 103 15
17 25 36 21 42 -3 6 -2 8 2 3 5 -4 17 5 27 20 10 16 18 24 18 18 0 -5 11 6 24
25 24 35 186 205 186 195 0 -3 22 17 50 45 27 27 53 50 57 50 4 0 27 18 50 39
23 21 44 37 47 34 3 -3 8 2 12 11 3 9 10 16 16 16 15 0 38 27 30 35 -4 4 -2 6
3 5 21 -5 33 1 66 30 19 16 40 30 47 30 6 0 12 5 12 10 0 6 7 10 15 10 8 0 15
5 15 10 0 6 6 10 13 10 7 0 19 9 26 19 8 11 23 18 33 16 10 -2 16 0 13 4 -2 5
5 11 18 15 12 3 22 4 23 3 0 -1 12 11 27 27 15 16 27 25 27 21 0 -4 6 -2 13 4
8 6 17 8 20 4 4 -3 7 -1 7 5 0 10 38 28 53 24 4 -1 7 2 7 7 0 5 26 22 58 37
31 16 58 32 60 36 2 4 10 4 18 1 8 -3 14 0 14 7 0 7 7 10 15 6 8 -3 18 1 22 9
5 7 11 14 15 15 34 8 48 14 48 21 0 5 7 6 15 3 8 -4 15 -1 15 5 0 6 5 11 11
11 5 0 7 -5 4 -11 -4 -6 2 -5 13 2 12 7 18 17 15 23 -4 5 1 7 10 3 9 -3 29 0
44 9 41 21 86 37 101 35 6 -1 12 3 12 8 0 6 7 8 15 5 8 -4 15 -1 15 5 0 6 7 8
15 5 8 -4 15 -1 15 4 0 6 10 9 21 7 12 -3 19 -1 15 2 -7 7 74 33 109 36 25 1
57 36 51 54 -3 7 0 13 6 13 6 0 9 3 5 6 -3 3 -2 16 3 29 5 14 5 26 -3 34 -8 8
-8 11 0 11 6 0 14 7 17 16 3 9 2 12 -5 8 -6 -3 -4 7 4 23 9 16 18 45 22 66 4
20 12 37 18 37 6 0 7 3 4 7 -4 3 -2 12 4 20 6 7 8 13 5 13 -10 0 33 59 72 100
19 19 38 34 43 33 5 -2 9 2 9 8 0 5 14 15 30 20 17 6 30 14 30 19 0 4 12 5 26
2 16 -3 24 -1 21 4 -3 6 5 11 19 12 13 1 24 -3 24 -9z"/>
</g>
</svg>
