<?xml version="1.0" encoding="utf-8"?>
<!-- Svg Vector Icons : http://www.onlinewebfonts.com/icon -->
<!DOCTYPE svg PUBLIC "-//W3C//DTD SVG 1.1//EN" "http://www.w3.org/Graphics/SVG/1.1/DTD/svg11.dtd">
<svg version="1.1" xmlns="http://www.w3.org/2000/svg" xmlns:xlink="http://www.w3.org/1999/xlink" x="0px" y="0px" viewBox="0 0 1000 1000" enable-background="new 0 0 1000 1000" xml:space="preserve">
<metadata> Svg Vector Icons : http://www.onlinewebfonts.com/icon </metadata>
<g><path d="M26.7,988.4C32.1,763.8,242.3,582.6,500,582.6s467.9,181.2,473.3,405.8H990c-1.3-55.2-14.2-108.8-38.6-159.4c-24.8-51.4-60.2-97.5-105.3-137.1c-45-39.5-97.4-70.5-155.7-92.2c-43.1-16-88.2-26.3-134.4-31c53.8-10.8,103.3-37.2,143-76.9c53.1-53.1,82.4-123.8,82.4-199S752.1,147.2,699,94c-53.1-53.1-123.8-82.4-199-82.4c-75.2,0-145.8,29.3-199,82.4c-53.1,53.1-82.4,123.8-82.4,199s29.3,145.8,82.4,199c39.7,39.7,89.2,66.1,143,76.9c-46.3,4.6-91.3,14.9-134.4,31c-58.3,21.7-110.7,52.7-155.7,92.2C108.7,731.5,73.3,777.6,48.6,829C24.2,879.6,11.3,933.2,10,988.4L26.7,988.4L26.7,988.4z M235.3,293C235.3,147,354,28.3,500,28.3S764.7,147,764.7,293S646,557.7,500,557.7S235.3,438.9,235.3,293z"/></g>
</svg>