<?xml version="1.0" encoding="UTF-8" standalone="no"?><!DOCTYPE svg PUBLIC "-//W3C//DTD SVG 1.1//EN" "http://www.w3.org/Graphics/SVG/1.1/DTD/svg11.dtd"><svg width="100%" height="100%" viewBox="0 0 794 695" version="1.1" xmlns="http://www.w3.org/2000/svg" xmlns:xlink="http://www.w3.org/1999/xlink" xml:space="preserve" xmlns:serif="http://www.serif.com/" style="fill-rule:evenodd;clip-rule:evenodd;stroke-linejoin:round;stroke-miterlimit:1.41421;"><g><path d="M793.701,595.788l-793.701,99.213l0,-694.489l793.701,0l0,595.276Z" style="fill:#004a7d;fill-rule:nonzero;"/><path d="M633.834,353.073c-1.011,4.255 -2.934,6.25 -7.138,6.584c-15.005,1.194 -23.312,-4.87 -23.864,-20.262c-0.132,-18.172 -0.039,-34.924 -0.246,-52.386c-0.06,-5.061 -0.818,-35.315 -0.818,-35.315c0,0 4.023,-1.138 10.841,-1.677c10.621,-0.839 17.756,4.356 17.801,15.534c0.038,9.362 -0.116,22.864 -0.125,34.186c0.803,-1.884 3.018,-6.936 3.896,-8.782c9.963,-21.916 31.321,-58.896 58.751,-47.359c12.799,5.384 13.83,23.221 13.704,26.723c-3.536,-1.2 -9.954,-4.582 -22.271,1.14c-34.722,19.808 -47.451,68.661 -50.531,81.614Z" style="fill:#fff;fill-rule:nonzero;"/><path d="M545.998,275.657c4.504,-9.424 11.397,-9.249 16.735,-7.126c5.338,2.123 8.593,12.191 -2.051,24.707c-9.352,10.996 -18.679,16.96 -18.679,16.96c0,0 -3.057,-19.789 3.995,-34.541Zm41.374,48.035c-17.838,16.18 -31.547,18.286 -38.242,5.202l5.41,-3.384c0,0 43.88,-24.916 30.24,-59.857c-0.422,-1.15 -0.915,-2.26 -1.466,-3.332c-0.028,-0.055 -0.051,-0.11 -0.078,-0.166l-0.003,0.011c-3.108,-5.954 -8.189,-10.578 -14.931,-12.84c-12.708,-4.262 -25.223,-3.251 -36.272,5.159c-16.272,12.384 -22.249,29.945 -22.448,49.951c-0.343,34.792 23.422,58.127 56.09,55.105c9.155,-0.848 17.273,-4.58 23.388,-11.865c6.381,-7.602 4.962,-19.235 -1.688,-23.984Z" style="fill:#fff;fill-rule:nonzero;"/><path d="M469.47,321.144c0,0 -2.955,14.819 -19.405,14.819c-16.451,0 -22.427,-21.461 -19.142,-39.389c2.099,-11.946 8.925,-21.265 16.677,-25.041c7.751,-3.776 22.426,-2.404 22.426,14.413l-0.556,35.198Zm-37.443,128.111c-7.545,6.342 -17.087,11.661 -22.979,6.432c-17.852,-19.081 39.801,-59.509 53.37,-68.019c-8.63,37.877 -22.427,54.147 -30.391,61.587Zm73.062,-107.206l-0.867,-5.44l-8.57,5.977c2.355,-36.77 1.988,-77.281 2.274,-92.318c0,0 -16.602,-5.082 -24.443,-2.891c-2.813,0.786 -4.066,2.782 -4.693,5.564c-11.17,-6.812 -28.725,-6.118 -40.133,0.86c-17.868,10.931 -25.587,27.715 -27.82,45.475c-3.459,30.34 8.257,60.391 42.026,60.527c9.403,0 18.214,-4.272 25.218,-9.089c-0.09,0.896 -0.783,7.332 -0.944,8.32c-5.116,3.279 -24.554,15.74 -34.974,22.44c-12.62,8.117 -27.033,16.766 -38.25,29.886c-10.735,12.557 -16.392,25.343 -17.295,39.093c-0.571,8.702 1.384,15.951 5.977,22.164c6.066,8.205 15.578,12.198 29.071,12.198c0.156,0 0.313,-0.001 0.47,-0.002c8.55,-0.059 16.909,-2.744 25.556,-8.212c9.532,-6.027 17.738,-13.871 24.864,-23.777c16.919,-20.927 25.758,-52.128 30.359,-85.269c0.703,-0.526 2.847,-2.045 3.243,-2.332c6.58,-4.765 10.39,-12.982 8.931,-23.174Z" style="fill:#fff;fill-rule:nonzero;"/><path d="M329.596,207.003c2.949,7.881 -1.887,17.118 -10.802,20.631c-8.916,3.513 -18.534,-0.028 -21.484,-7.909c-2.949,-7.882 1.887,-17.118 10.802,-20.632c8.916,-3.512 18.534,0.029 21.484,7.91Z" style="fill:#fff;fill-rule:nonzero;"/><path d="M309.157,248.86c-3.192,0 -9.558,0.845 -9.558,0.845c0,0 -0.702,81.55 -0.423,91.944c-0.097,21.179 28.068,22.511 28.444,10.778c0.576,-20.992 0.328,-68.067 0.489,-89.066c0.065,-8.616 -3.446,-14.501 -18.952,-14.501Z" style="fill:#fff;fill-rule:nonzero;"/><path d="M343.783,193.571c5.834,-0.343 12.896,0.252 17.119,1.407c8.687,2.378 13.523,10.046 13.215,20.8c-0.477,16.65 -2.132,82.081 -0.857,97.695c1.523,18.644 6.313,22.113 22.95,21.36c3.195,13.185 -5.013,24.868 -17.389,24.969c-18.386,0.149 -28.743,-9.955 -32.723,-32.32c-3.98,-22.366 -2.315,-100.673 -2.315,-133.911Z" style="fill:#fff;fill-rule:nonzero;"/><path d="M144.561,183.579c0,0 -11.912,137.426 5.546,137.426c17.458,0 26.29,-50.434 48.883,-50.434c22.592,0 30.171,50.434 44.549,50.434c14.376,0 12.035,-57.481 4.765,-122.022c0,0 15.237,-10.531 24.039,-3.286c16.082,13.238 20.304,164.106 -24.881,164.106c-30.809,0 -36.149,-46.459 -48.678,-46.459c-12.528,0 -24.647,46.459 -50.115,46.459c-25.468,0 -36.386,-34.092 -38.407,-71.065c-1.471,-26.89 -9.859,-121.59 34.299,-105.159Z" style="fill:#fff;fill-rule:nonzero;"/></g></svg>