<?xml version="1.0" encoding="UTF-8"?>
<svg width="23px" height="26px" viewBox="0 0 23 26" version="1.1" xmlns="http://www.w3.org/2000/svg" xmlns:xlink="http://www.w3.org/1999/xlink">
    <!-- Generator: Sketch 51.2 (57519) - http://www.bohemiancoding.com/sketch -->
    <title>Group 2 Copy</title>
    <desc>Created with Sketch.</desc>
    <defs></defs>
    <g id="Page-1" stroke="none" stroke-width="1" fill="none" fill-rule="evenodd" stroke-linecap="round" stroke-linejoin="round">
        <g id="Group-2-Copy" transform="translate(1.000000, 1.000000)" stroke="#9B9B9B" stroke-width="2">
            <g id="Group">
                <g id="Page-1">
                    <path d="M18.6926526,8.25521053 L15.1093895,8.25521053 L5.88928421,8.25521053 L2.30602105,8.25521053 C1.03165263,8.25521053 0.000442105263,9.28863158 0.000442105263,10.5618947 L0.000442105263,11.8694211 L0.000442105263,20.2948421 L0.000442105263,21.6001579 C0.000442105263,22.8745263 1.03165263,23.9068421 2.30602105,23.9068421 L5.88928421,23.9068421 L15.1093895,23.9068421 L18.6926526,23.9068421 C19.9659158,23.9068421 20.9993368,22.8745263 20.9993368,21.6001579 L20.9993368,20.2948421 L20.9993368,11.8694211 L20.9993368,10.5618947 C20.9993368,9.28863158 19.9659158,8.25521053 18.6926526,8.25521053 Z" id="Stroke-1"></path>
                    <path d="M5.67884211,7.52772632 L5.67884211,4.82093684 C5.67884211,2.16830526 7.84847368,-0.000221052632 10.4988947,-0.000221052632 C13.1515263,-0.000221052632 15.3200526,2.16830526 15.3200526,4.82093684 L15.3200526,7.52772632" id="Stroke-3"></path>
                </g>
            </g>
        </g>
    </g>
</svg>