<!-- Generated by IcoMoon.io -->
<svg version="1.1" xmlns="http://www.w3.org/2000/svg" width="32" height="32" viewBox="0 0 32 32">
<title>cash</title>
<path d="M24 2.8h-7.333v2.933h7.333v-2.933zM21.067 7.2h-1.467v1.467h1.467v-1.467zM24 13.067h-6.533v1.467h6.533v-1.467zM12.4 13.067c0.4 0 0.667 0.267 0.667 0.667s-0.267 0.667-0.667 0.667h-4.4c-0.4 0-0.667-0.267-0.667-0.667s0.267-0.667 0.667-0.667h4.4zM24.8 11.6c0.133 0 0.4 0.133 0.533 0.267s0.267 0.267 0.267 0.533v2.933c0 0.133-0.133 0.4-0.267 0.533s-0.267 0.267-0.533 0.267h-8c-0.133 0-0.4-0.133-0.533-0.267s-0.267-0.267-0.267-0.533v-2.933c0-0.133 0.133-0.4 0.267-0.533s0.267-0.267 0.533-0.267h8zM24.8 17.467c0.4 0 0.667 0.267 0.667 0.667s-0.267 0.667-0.667 0.667h-0.8c-0.4 0-0.667-0.267-0.667-0.667s0.267-0.667 0.667-0.667h0.8zM21.067 17.467c0.4 0 0.667 0.267 0.667 0.667s-0.267 0.667-0.667 0.667h-0.667c-0.4 0-0.667-0.267-0.667-0.667s0.267-0.667 0.667-0.667h0.667zM17.467 17.467c0.4 0 0.667 0.267 0.667 0.667s-0.267 0.667-0.667 0.667h-0.667c-0.4 0-0.667-0.267-0.667-0.667s0.267-0.667 0.667-0.667h0.667zM24.8 20.4c0.4 0 0.667 0.267 0.667 0.667s-0.267 0.667-0.667 0.667h-0.8c-0.4 0-0.667-0.267-0.667-0.667s0.267-0.667 0.667-0.667h0.8zM21.067 20.4c0.4 0 0.667 0.267 0.667 0.667s-0.267 0.667-0.667 0.667h-0.667c-0.4 0-0.667-0.267-0.667-0.667s0.267-0.667 0.667-0.667h0.667zM17.467 20.4c0.4 0 0.667 0.267 0.667 0.667s-0.267 0.667-0.667 0.667h-0.667c-0.4 0-0.667-0.267-0.667-0.667s0.267-0.667 0.667-0.667h0.667zM26.933 10.133h-21.867v13.2h22v-13.2zM18.133 26.267c0.4 0 0.667 0.267 0.667 0.667s-0.267 0.667-0.667 0.667h-4.4c-0.4 0-0.667-0.267-0.667-0.667s0.267-0.667 0.667-0.667h4.4zM29.2 24.8h-26.4v4.4h26.4v-4.4zM24.8 1.333c0.133 0 0.4 0.133 0.533 0.267s0.267 0.267 0.267 0.533v4.4c0 0.133-0.133 0.4-0.267 0.533s-0.267 0.267-0.533 0.267h-2.133v1.467h5.067c0.133 0 0.4 0.133 0.533 0.267s0.267 0.267 0.267 0.533v13.867h1.467c0.133 0 0.4 0.133 0.533 0.267s0.267 0.267 0.267 0.533v5.867c0 0.133-0.133 0.4-0.267 0.533s-0.267 0.267-0.533 0.267h-27.867c-0.133 0-0.4-0.133-0.533-0.267-0.133-0.4-0.267-0.533-0.267-0.8v-5.867c0-0.133 0.133-0.4 0.267-0.533s0.267-0.267 0.533-0.267h1.467v-13.733c0-0.133 0.133-0.4 0.267-0.533s0.267-0.267 0.533-0.267h13.867v-1.467h-2.267c-0.133 0-0.4-0.133-0.533-0.267s-0.267-0.267-0.267-0.533v-4.267c0-0.133 0.133-0.4 0.267-0.533s0.4-0.267 0.533-0.267h8.8z"></path>
</svg>
