<svg version="1.1" xmlns="http://www.w3.org/2000/svg" width="32" height="32" viewBox="0 0 32 32"><path d="M26.267 5.733v1.467h-20.533v-1.467h20.533zM11.6 13.067c0.4 0 0.667 0.267 0.667 0.667v8.8c0 0.133-0.133 0.4-0.267 0.533s-0.267 0.267-0.533 0.267c-0.133 0-0.4-0.133-0.533-0.267s-0.267-0.267-0.267-0.533v-8.8c0.267-0.4 0.533-0.667 0.933-0.667zM20.4 13.067c0.4 0 0.667 0.267 0.667 0.667v8.933c0 0.133-0.133 0.4-0.267 0.533s-0.267 0.267-0.533 0.267-0.4-0.133-0.533-0.267c-0.133-0.133-0.133-0.267-0.267-0.4v-8.933c0.133-0.533 0.533-0.8 0.933-0.8zM16 13.067c0.4 0 0.667 0.267 0.667 0.667v8.933c0 0.133-0.133 0.4-0.267 0.533s-0.267 0.267-0.533 0.267c-0.133 0-0.4-0.133-0.533-0.267s-0.133-0.267-0.267-0.4v-8.933c0.267-0.533 0.533-0.8 0.933-0.8zM24.8 27.733c0 0.8-0.667 1.467-1.467 1.467h-14.667c-0.8 0-1.467-0.667-1.467-1.467v-19.067h17.6v19.067zM13.067 2.8h5.867c0.8 0 1.467 0.667 1.467 1.467h-8.8c0-0.8 0.667-1.467 1.467-1.467zM26.933 4.267h-5.067c0-1.6-1.333-2.933-2.933-2.933h-5.867c-1.6 0-2.933 1.333-2.933 2.933h-5.067c-0.133 0-0.4 0.133-0.533 0.267s-0.267 0.267-0.267 0.533v2.933c0 0.133 0.133 0.4 0.267 0.533s0.267 0.267 0.533 0.267h0.667v19.067c0 1.6 1.333 2.933 2.933 2.933h14.667c1.6 0 2.933-1.333 2.933-2.933v-19.2h0.667c0.133 0 0.4-0.133 0.533-0.267s0.267-0.267 0.267-0.533v-2.8c0-0.133-0.133-0.4-0.267-0.533s-0.267-0.267-0.533-0.267z"></path></svg>