<!-- Generated by IcoMoon.io -->
<svg version="1.1" xmlns="http://www.w3.org/2000/svg" width="32" height="32" viewBox="0 0 32 32">
<title>edit</title>
<path d="M28.133 8.267l-1.067 1.067-4.4-4.4 1.067-1.067c1.2-1.2 3.2-1.2 4.4 0 1.333 1.2 1.333 3.2 0 4.4zM4.267 24.267l3.6 3.6-4.667 1.067 1.067-4.667zM9.333 27.067l-4.4-4.4 16.533-16.667 4.4 4.4-16.533 16.667zM29.333 2.667c-1.867-1.733-4.8-1.733-6.667 0l-19.467 19.467c-0.133 0.133-0.133 0.267-0.267 0.4l-1.6 7.2c0 0.267 0 0.533 0.133 0.667s0.4 0.267 0.667 0.267c0 0 0.133 0 0.133 0l7.2-1.6c0.133 0 0.267-0.133 0.4-0.267l19.467-19.467c1.733-1.867 1.733-4.8 0-6.667z"></path>
</svg>
