<svg version="1.1" xmlns="http://www.w3.org/2000/svg" width="32" height="32" viewBox="0 0 32 32"><path d="M16 7.2c0.8 0 1.467 0.667 1.467 1.467s-0.667 1.467-1.467 1.467-1.467-0.667-1.467-1.467c0-0.8 0.667-1.467 1.467-1.467zM16 12.267c0.4 0 0.8 0.267 0.8 0.8v9.467h1.467c0.4 0 0.8 0.267 0.8 0.667s-0.267 0.8-0.8 0.8h-4.4c-0.4 0-0.667-0.267-0.667-0.8 0-0.4 0.267-0.667 0.667-0.667h1.467v-8.8h-0.8c-0.4 0-0.667-0.267-0.667-0.667s0.267-0.8 0.667-0.8h1.467zM16 2.8c-7.333 0-13.2 5.867-13.2 13.2s5.867 13.2 13.2 13.2c7.333 0 13.2-5.867 13.2-13.2s-5.867-13.2-13.2-13.2zM16 1.333c8.133 0 14.667 6.533 14.667 14.667s-6.533 14.667-14.667 14.667-14.667-6.533-14.667-14.667 6.533-14.667 14.667-14.667z" fill="#363636"></path></svg>