<!-- Generated by IcoMoon.io -->
<svg version="1.1" xmlns="http://www.w3.org/2000/svg" width="32" height="32" viewBox="0 0 32 32">
<title>instagram</title>
<path d="M16 31.529c-8.565 0-15.529-6.965-15.529-15.529s6.965-15.529 15.529-15.529c8.565 0 15.529 6.965 15.529 15.529s-6.965 15.529-15.529 15.529zM16 1.412c-8 0-14.588 6.588-14.588 14.588s6.588 14.588 14.588 14.588 14.588-6.588 14.588-14.588c0-8-6.588-14.588-14.588-14.588z"></path>
<path d="M16 8.471c-2.071 0-2.259 0-3.106 0s-1.318 0.188-1.788 0.376c-0.471 0.188-0.941 0.471-1.318 0.847-0.471 0.471-0.753 0.847-0.941 1.412-0.188 0.471-0.282 0.941-0.376 1.788 0 0.847 0 1.035 0 3.106s0 2.259 0 3.106c0 0.847 0.188 1.318 0.376 1.788s0.471 0.941 0.847 1.318c0.376 0.376 0.847 0.659 1.318 0.847s1.035 0.282 1.788 0.376c0.847 0 1.035 0 3.106 0s2.259 0 3.106 0c0.847 0 1.318-0.188 1.788-0.376s0.941-0.471 1.318-0.847c0.376-0.376 0.659-0.847 0.847-1.318s0.282-1.035 0.376-1.788c0-0.847 0-1.035 0-3.106s0-2.259 0-3.106c0-0.847-0.188-1.318-0.376-1.788s-0.471-0.941-0.847-1.318c-0.376-0.376-0.847-0.659-1.318-0.847s-1.035-0.282-1.788-0.376c-0.753-0.094-0.941-0.094-3.012-0.094v0zM15.341 9.788c0.188 0 0.471 0 0.659 0 1.976 0 2.259 0 3.012 0s1.129 0.188 1.412 0.282c0.376 0.094 0.565 0.282 0.847 0.565s0.471 0.471 0.565 0.847c0.094 0.282 0.188 0.659 0.282 1.412 0 0.753 0 1.035 0 3.012s0 2.259 0 3.012c0 0.753-0.188 1.129-0.282 1.412-0.094 0.376-0.282 0.565-0.565 0.847s-0.471 0.471-0.847 0.565c-0.282 0.188-0.659 0.376-1.412 0.376s-1.035 0-3.012 0c-1.976 0-2.259 0-3.012 0s-1.129-0.188-1.412-0.282c-0.376-0.094-0.565-0.282-0.847-0.565s-0.471-0.471-0.565-0.847c-0.094-0.282-0.188-0.659-0.282-1.412 0-0.753 0-1.035 0-3.012s0-2.259 0-3.012c0-0.753 0.188-1.129 0.282-1.412 0.094-0.376 0.282-0.565 0.565-0.847s0.471-0.471 0.847-0.565c0.282-0.094 0.659-0.282 1.412-0.282 0.659 0 0.941-0.094 2.353-0.094v0zM20.047 11.106c-0.471 0-0.941 0.376-0.941 0.941 0 0.471 0.376 0.941 0.941 0.941s0.941-0.376 0.941-0.941-0.471-0.941-0.941-0.941v0zM16 12.141c-2.165 0-3.859 1.694-3.859 3.859s1.694 3.859 3.859 3.859c2.165 0 3.859-1.694 3.859-3.859s-1.694-3.859-3.859-3.859v0zM16 13.459c1.412 0 2.541 1.129 2.541 2.541s-1.129 2.541-2.541 2.541c-1.412 0-2.541-1.129-2.541-2.541s1.129-2.541 2.541-2.541z"></path>
</svg>
