<!-- Generated by IcoMoon.io -->
<svg version="1.1" xmlns="http://www.w3.org/2000/svg" width="32" height="32" viewBox="0 0 32 32">
<title>lock</title>
<path d="M16 2.8c-2.4 0-4.4 2-4.4 4.4v5.867h8.8v-5.867c0-2.4-2-4.4-4.4-4.4zM16 18.933c0.4 0 0.667 0.267 0.667 0.667v4.4c0 0.4-0.267 0.667-0.667 0.667s-0.667-0.267-0.667-0.667v-4.4c0-0.4 0.267-0.667 0.667-0.667zM24 14.533h-16c-1.2 0-2.133 0.933-2.133 2.133v10.267c0 1.2 0.933 2.133 2.133 2.133h16c1.2 0 2.133-0.933 2.133-2.133v-10.267c0.133-1.2-0.8-2.133-2.133-2.133zM16 1.333c3.2 0 5.867 2.667 5.867 5.867v5.867h2.133c2 0 3.6 1.6 3.6 3.6v10.267c0 2-1.6 3.6-3.6 3.6h-16c-2 0-3.6-1.6-3.6-3.6v-10.267c-0.133-2 1.467-3.6 3.6-3.6h2.133v-5.867c0-3.2 2.667-5.867 5.867-5.867z"></path>
</svg>
