<!-- Generated by IcoMoon.io -->
<svg version="1.1" xmlns="http://www.w3.org/2000/svg" width="32" height="32" viewBox="0 0 32 32">
<title>search-outline</title>
<path d="M22.667 12.667c0-1.333-0.267-2.667-0.8-3.867s-1.2-2.267-2.133-3.2c-0.933-0.933-2-1.6-3.2-2.133-1.333-0.533-2.533-0.8-3.867-0.8s-2.533 0.267-3.867 0.8c-1.2 0.4-2.267 1.2-3.2 2.133s-1.733 2-2.267 3.333c-0.4 1.2-0.667 2.4-0.667 3.733 0 1.2 0.267 2.533 0.667 3.733 0.533 1.2 1.2 2.267 2.133 3.333 0.933 0.933 2 1.6 3.2 2.133s2.533 0.8 3.733 0.8c1.333 0 2.667-0.267 3.867-0.8s2.267-1.2 3.2-2.133c0.933-0.933 1.6-2 2.133-3.2 0.8-1.333 1.067-2.533 1.067-3.867zM20.4 15.867c-0.4 1.067-1.067 1.867-1.867 2.667s-1.733 1.467-2.8 1.867c-1.067 0.4-2.133 0.667-3.2 0.667s-2.133-0.267-3.2-0.667c-1.067-0.4-1.867-1.067-2.667-1.867s-1.467-1.733-1.867-2.8c-0.4-1.067-0.667-2.133-0.667-3.2s0.267-2.133 0.667-3.067c0.533-1.067 1.067-2 1.867-2.8s1.733-1.467 2.667-1.867c1.067-0.4 2-0.667 3.2-0.667 1.067 0 2.133 0.267 3.2 0.667 1.067 0.533 2 1.067 2.8 1.867s1.467 1.733 1.867 2.667c0.4 1.067 0.667 2.133 0.667 3.2 0 1.2-0.267 2.267-0.667 3.333z"></path>
<path d="M29.067 25.467c-0.133-0.4-0.4-0.667-0.667-0.933l-4.667-4.533-1.067 1.067 4.667 4.667c0.133 0.133 0.267 0.267 0.267 0.533 0 0.133 0 0.133 0.133 0.267v0.133c0 0.133 0 0.133 0 0.267s-0.133 0.4-0.267 0.533c-0.133 0.133-0.267 0.267-0.4 0.267h-0.4c-0.133 0-0.4 0-0.667-0.133l-5.067-5.067-1.067 1.067 4.8 4.8c0.267 0.267 0.533 0.533 0.933 0.667s0.667 0.267 1.067 0.267v0c0.4 0 0.667 0 1.067-0.133 0.267-0.133 0.533-0.267 0.8-0.533s0.4-0.533 0.533-0.933c0.133-0.4 0.133-0.667 0.133-1.067 0.133-0.533 0-0.8-0.133-1.2z"></path>
</svg>
