<!-- Generated by IcoMoon.io -->
<svg version="1.1" xmlns="http://www.w3.org/2000/svg" width="32" height="32" viewBox="0 0 32 32">
<title>weekly_report</title>
<path d="M9.467 4.267c-0.4 0-0.8 0.267-0.8 0.8v2.933c0 0.4 0.267 0.8 0.8 0.8 0.4 0 0.667-0.267 0.667-0.8v-2.933c0-0.533-0.267-0.8-0.667-0.8zM22.533 4.267c-0.4 0-0.8 0.267-0.8 0.8v2.933c0 0.4 0.267 0.8 0.8 0.8 0.4 0 0.8-0.267 0.8-0.8v-2.933c0-0.533-0.267-0.8-0.8-0.8zM7.2 7.2h-4.4v4.4h26.4v-4.4h-4.4v0.8c0 1.2-0.933 2.267-2.267 2.267s-2.133-0.933-2.133-2.267v-0.8h-8.8v0.8c0 1.2-0.933 2.267-2.133 2.267s-2.267-0.933-2.267-2.267v-0.8zM9.467 16c0.4 0 0.667 0.267 0.667 0.8s-0.267 0.8-0.667 0.8h-2.933c-0.4 0-0.8-0.267-0.8-0.8 0-0.4 0.267-0.8 0.8-0.8h2.933zM25.467 16c0.4 0 0.8 0.267 0.8 0.8 0 0.4-0.267 0.667-0.8 0.667h-2.933c-0.4 0-0.667-0.267-0.667-0.667s0.267-0.8 0.667-0.8h2.933zM18.133 16c0.4 0 0.8 0.267 0.8 0.8 0 0.4-0.267 0.667-0.8 0.667h-4.4c-0.4 0-0.667-0.267-0.667-0.667s0.267-0.8 0.667-0.8h4.4zM9.467 19.733c0.4 0 0.667 0.267 0.667 0.8s-0.267 0.8-0.667 0.8h-2.933c-0.4 0-0.8-0.267-0.8-0.8s0.267-0.8 0.8-0.8h2.933zM25.467 19.733c0.4 0 0.8 0.267 0.8 0.8s-0.267 0.8-0.8 0.8h-2.933c-0.4 0-0.667-0.267-0.667-0.8s0.267-0.8 0.667-0.8h2.933zM18.133 19.733c0.4 0 0.8 0.267 0.8 0.8s-0.267 0.8-0.8 0.8h-4.4c-0.4 0-0.667-0.267-0.667-0.8s0.267-0.8 0.667-0.8h4.4zM9.467 23.333c0.4 0 0.667 0.267 0.667 0.8 0 0.4-0.267 0.667-0.667 0.667h-2.933c-0.4 0-0.8-0.267-0.8-0.667s0.267-0.8 0.8-0.8h2.933zM25.467 23.333c0.4 0 0.8 0.267 0.8 0.8 0 0.4-0.267 0.667-0.8 0.667h-2.933c-0.4 0-0.667-0.267-0.667-0.667s0.267-0.8 0.667-0.8h2.933zM18.133 23.333c0.4 0 0.8 0.267 0.8 0.8 0 0.4-0.267 0.667-0.8 0.667h-4.4c-0.4 0-0.667-0.267-0.667-0.667s0.267-0.8 0.667-0.8h4.4zM29.2 13.067h-26.4v14.667h26.4v-14.667zM22.533 2.8c1.2 0 2.133 0.933 2.133 2.133v0.8h5.2c0.4 0 0.8 0.267 0.8 0.8v22c0 0.4-0.267 0.667-0.8 0.667h-27.733c-0.4 0-0.8-0.267-0.8-0.667v-22c0-0.4 0.267-0.8 0.8-0.8h5.067v-0.667c0-1.2 0.933-2.133 2.267-2.133 1.2 0 2.133 0.933 2.133 2.133v0.8h8.8v-0.8c0-1.333 0.933-2.267 2.133-2.267z"></path>
</svg>
