<!-- Generated by IcoMoon.io -->
<svg version="1.1" xmlns="http://www.w3.org/2000/svg" width="32" height="32" viewBox="0 0 32 32">
<title>add</title>
<path d="M16 10.133c0.4 0 0.667 0.267 0.667 0.667v4.4h4.4c0.4 0 0.667 0.267 0.667 0.667s-0.267 0.667-0.667 0.667h-4.4v4.4c0 0.4-0.267 0.667-0.667 0.667s-0.667-0.267-0.667-0.667v-4.4h-4.4c-0.4 0-0.667-0.267-0.667-0.667s0.267-0.667 0.667-0.667h4.4v-4.267c0-0.533 0.267-0.8 0.667-0.8zM16 2.8c-7.333 0-13.2 5.867-13.2 13.2s5.867 13.2 13.2 13.2c7.333 0 13.2-5.867 13.2-13.2s-5.867-13.2-13.2-13.2zM16 1.333c8.133 0 14.667 6.533 14.667 14.667s-6.533 14.667-14.667 14.667c-8.133 0-14.667-6.533-14.667-14.667s6.533-14.667 14.667-14.667z"></path>
</svg>
