<?xml version="1.0" encoding="utf-8"?>
<svg version="1.1" id="Capa_1" xmlns="http://www.w3.org/2000/svg" xmlns:xlink="http://www.w3.org/1999/xlink" x="0px" y="0px" viewBox="0 0 612 612" style="enable-background:new 0 0 612 612;" xml:space="preserve">
<g>
	<g>
		<path d="M0,262.2h126V10.1H0V262.2z" fill="#FFF"/>
		<path d="M465.5,355.8c0,0-3.4,19.9,10.9,24.4c0,0,15.2,2.8,19-10.8l5.7-83.5c0.6-8.4-3.9-14.9-3.9-14.9c-1.7-2.4-3.7-4.9-5.7-7.3
			c-7.7-3.8-17.2-8.1-28.1-12.6c1.3,1.7,2.7,3.6,3.9,5.5c0,0,5.5,9.3,4.5,18.4L465.5,355.8z" fill="#FFF"/>
		<path d="M524.4,397.2c0,0,5.2,0.9,11.1-0.9c1.9-23.4,6.1-69.4,10-90.4c0,0,3.2-17.6-16.3-28.6c0,0-9.8-5.9-26.8-14
			c2.6,2.8,5,5.8,7.1,8.7c0,0,4.8,6.8,4.1,15.4l-6.1,87.8C507.5,375.3,507.4,394.5,524.4,397.2z" fill="#FFF"/>
		<path d="M573.1,202.5C440.2,81.3,329.9,49.6,329.9,49.6c-25-7.3-59-8-59-8H157.6v138.6h50.7c53.4,119.8,135,183.3,135,183.3
			c24,18.9,54.7,45.3,54.7,45.3c21.6,19.7,29.5,18,29.5,18c17.3,0,16.8-21.7,16.8-21.7c0-39.3-62.9-104.5-62.9-104.5
			c-11.8-13.6-0.3-29.9-0.3-29.9c19.9-24.9,41.3-34.5,41.3-34.5c8.5-4.7,27.1-0.8,27.1-0.8c55.9,10.6,97,38.7,97,38.7
			c12.8,8.1,11.6,25.7,11.6,25.7c-3.5,21.2-8.5,76.8-8.5,76.8c-2.5,32.3,15.5,34.3,15.5,34.3C610.6,416,612,281.3,612,281.3
			C612,231.8,573.1,202.5,573.1,202.5z" fill="#FFF"/>
	</g>
</g>
<path d="M485.6,436.6c-45.5,0-82.4,36.9-82.4,82.4s36.9,82.4,82.4,82.4S568,564.5,568,519S531.1,436.6,485.6,436.6z M514,568.2
	L514,568.2L514,568.2c-1.4,0.6-3,1.1-4.9,1.6c-1.9,0.5-3.8,0.9-5.9,1.2c-2,0.3-4.1,0.6-6.2,0.7c-2.1,0.2-4.2,0.2-6.1,0.2
	c-26,0-41.9-10.3-47.7-31h-12.2v-15.2h9.8c-0.1-0.9-0.1-1.8-0.1-2.6c0-0.9,0-1.7,0-2.6c0-2,0.1-4,0.3-5.9h-9.9v-15.2h12.5
	c3.2-10.6,8.7-18.8,16.8-24.4c8-5.7,18.3-8.5,30.8-8.5c1.9,0,3.9,0.1,6,0.3c2.1,0.2,4.2,0.4,6.1,0.8c2,0.3,3.8,0.7,5.5,1.2
	s3.1,1,4.3,1.5v18.9c-2.9-1-6.2-1.9-9.7-2.6c-3.6-0.7-7.2-1-10.7-1c-12.5,0-20.9,4.7-25.2,14h32v15.2H464c-0.2,1.7-0.3,3.5-0.3,5.4
	c0,1,0,2.1,0.1,3.1c0.1,1.1,0.1,1.9,0.2,2.6h28.4v15.2h-25c2.1,4.3,5.2,7.3,9.3,9.2c4.2,1.9,9.6,2.8,16.5,2.8c1.6,0,3.3-0.1,5.2-0.3
	c1.9-0.2,3.8-0.4,5.7-0.8c1.9-0.3,3.7-0.7,5.5-1.1c1.8-0.4,3.4-0.9,4.8-1.4v18.8H514z" fill="#FFF"/>
</svg>
