<!-- Generated by IcoMoon.io -->
<svg version="1.1" xmlns="http://www.w3.org/2000/svg" width="32" height="32" viewBox="0 0 32 32">
<title>bill</title>
<path d="M24.8 5.733c0.533 0 0.8 0.267 0.8 0.667s-0.4 0.667-0.8 0.667h-13.733c-0.4 0.133-0.8-0.133-0.8-0.533s0.4-0.667 0.8-0.667h13.733zM24.8 9.467c0.533 0 0.8 0.267 0.8 0.667s-0.4 0.667-0.8 0.667h-13.733c-0.4 0.133-0.8-0.267-0.8-0.667s0.4-0.667 0.8-0.667h13.733zM14.933 13.333c0.4 0 0.667 0.267 0.667 0.667s-0.267 0.667-0.667 0.667h-4c-0.4 0-0.667-0.267-0.667-0.667s0.267-0.667 0.667-0.667h4zM14.933 16.667c0.4 0 0.667 0.267 0.667 0.667s-0.267 0.667-0.667 0.667h-4c-0.4 0-0.667-0.267-0.667-0.667s0.267-0.667 0.667-0.667h4zM5.733 2.8c-0.8 0-1.467 0.667-1.467 1.467v16.133h2.933v-16.133c0-0.8-0.667-1.467-1.467-1.467zM14.933 20.4c0.4 0 0.667 0.267 0.667 0.667s-0.267 0.667-0.667 0.667h-4c-0.4 0-0.667-0.267-0.667-0.667s0.267-0.667 0.667-0.667h4zM22.667 13.2c1.067 0 2 0.4 2.667 1.2 0.133 0.133 0.267 0.4 0.267 0.667s-0.267 0.4-0.533 0.533c-0.267 0.133-0.533 0-0.667-0.133-0.533-0.533-1.067-0.8-1.733-0.8-0.933 0-1.733 0.4-2.267 1.067h1.6c0.4 0 0.667 0.267 0.667 0.667s-0.267 0.667-0.667 0.667h-2.133c0 0.133 0 0.267 0 0.4s0 0.267 0 0.4h2.133c0.4 0 0.667 0.267 0.667 0.667s-0.267 0.667-0.667 0.667h-1.6c0.533 0.667 1.333 1.067 2.267 1.067 0.667 0 1.333-0.267 1.733-0.8 0.133-0.133 0.4-0.267 0.667-0.133s0.4 0.267 0.533 0.533c0 0.267 0 0.533-0.267 0.667-0.667 0.8-1.6 1.2-2.667 1.2-1.733 0-3.333-1.067-4-2.533h-0.4c-0.4 0-0.667-0.267-0.667-0.667s0.267-0.667 0.667-0.667v0c0-0.133 0-0.267 0-0.4s0-0.267 0-0.4v0c-0.4 0-0.667-0.267-0.667-0.667s0.267-0.667 0.667-0.667h0.4c0.667-1.6 2.267-2.533 4-2.533zM26.267 2.8h-18c0.267 0.4 0.4 0.933 0.4 1.467v24.533l2.667-1.067c0.133-0.133 0.4-0.133 0.533 0l3.333 1.333 2.667-1.333c0.267-0.133 0.4-0.133 0.667 0l2.667 1.333 3.333-1.333c0.133-0.133 0.4-0.133 0.533 0l2.667 1.067v-24.533c0-0.8-0.667-1.467-1.467-1.467zM26.267 1.333c1.6 0 2.933 1.333 2.933 2.933v25.6c0 0.267-0.133 0.533-0.267 0.667-0.267 0.133-0.533 0.133-0.8 0.133l-3.333-1.333-3.333 1.333c-0.133 0.133-0.4 0.133-0.533 0l-2.667-1.333-2.667 1.333c-0.133 0.133-0.4 0.133-0.533 0l-3.333-1.333-3.333 1.333c-0.4 0-0.667 0-0.933-0.133s-0.267-0.4-0.267-0.667v-8h-3.6c-0.133 0-0.4-0.133-0.533-0.267s-0.267-0.267-0.267-0.533v-16.8c0-1.6 1.333-2.933 2.933-2.933h20.533z"></path>
</svg>
