<!-- Generated by IcoMoon.io -->
<svg version="1.1" xmlns="http://www.w3.org/2000/svg" width="32" height="32" viewBox="0 0 32 32">
<title>checkbox-active</title>
<path d="M21.333 12.8l-5.867 7.333c-0.133 0.133-0.267 0.267-0.533 0.267v0c-0.133 0-0.4-0.133-0.533-0.267l-3.733-3.6c-0.267-0.267-0.267-0.8 0-1.067s0.8-0.267 1.067 0l3.067 3.067 5.333-6.667c0.267-0.267 0.667-0.4 1.067-0.133 0.267 0.267 0.4 0.8 0.133 1.067z"></path>
<path d="M25.333 2.667h-18.667c-2.267 0-4 1.733-4 4v18.667c0 2.267 1.733 4 4 4h18.667c2.267 0 4-1.733 4-4v-18.667c0-2.267-1.733-4-4-4zM28 25.333c0 1.467-1.2 2.667-2.667 2.667h-18.667c-1.467 0-2.667-1.2-2.667-2.667v-18.667c0-1.467 1.2-2.667 2.667-2.667h18.667c1.467 0 2.667 1.2 2.667 2.667v18.667z"></path>
</svg>
