<!-- Generated by IcoMoon.io -->
<svg version="1.1" xmlns="http://www.w3.org/2000/svg" width="32" height="32" viewBox="0 0 32 32">
<title>detail_store</title>
<path d="M19.013 14.413c-2.827 0-5.133 2.293-5.133 5.133 0 2.827 2.293 5.12 5.133 5.133 2.827 0 5.133-2.293 5.133-5.133s-2.307-5.133-5.133-5.133zM19.013 12.947c3.64 0 6.6 2.947 6.6 6.6 0 1.493-0.52 2.933-1.467 4.093l5.653 5.653c0.28 0.293 0.28 0.747 0 1.027s-0.747 0.28-1.027 0l-5.653-5.653c-1.16 0.947-2.6 1.453-4.093 1.467-3.64 0-6.6-2.947-6.6-6.6s2.947-6.587 6.587-6.587zM16.147 1.4l0.12 0.067 13.107 7.707c0.2 0.12 0.333 0.307 0.373 0.533l0.013 0.133v14.707l-1.547-1.547v-12.72l-12.333-7.253-12.333 7.253v18.827h19.44l1.547 1.547h-21.76c-0.16 0-0.32-0.053-0.453-0.147l-0.093-0.080c-0.12-0.12-0.187-0.267-0.213-0.427l-0.013-0.133v-20.027c0-0.227 0.107-0.44 0.267-0.587l0.107-0.080 13.107-7.707c0.2-0.12 0.44-0.147 0.667-0.067z"></path>
</svg>
