<!-- Generated by IcoMoon.io -->
<svg version="1.1" xmlns="http://www.w3.org/2000/svg" width="32" height="32" viewBox="0 0 32 32">
<title>eye</title>
<path d="M16 11.333c-2.533 0-4.667 2.133-4.667 4.667s2.133 4.667 4.667 4.667c2.533 0 4.667-2.133 4.667-4.667s-2.133-4.667-4.667-4.667zM16 10c3.333 0 6 2.667 6 6s-2.667 6-6 6c-3.333 0-6-2.667-6-6s2.667-6 6-6zM16 8c-7.2 0-13.333 6.533-13.333 8s6.133 8 13.333 8c7.2 0 13.333-6.533 13.333-8s-6.133-8-13.333-8zM16 6.667c7.467 0 14.667 6.8 14.667 9.333s-7.067 9.333-14.667 9.333c-7.467 0-14.667-6.8-14.667-9.333s7.2-9.333 14.667-9.333z"></path>
</svg>
