<!-- Generated by IcoMoon.io -->
<svg version="1.1" xmlns="http://www.w3.org/2000/svg" width="32" height="32" viewBox="0 0 32 32">
<title>location</title>
<path d="M16 9.56c-1.973 0-3.587 1.6-3.587 3.587 0 1.973 1.6 3.587 3.587 3.587 1.973 0 3.573-1.6 3.587-3.587 0-1.987-1.613-3.587-3.587-3.587zM16 8.12c2.773 0 5.013 2.24 5.013 5.013s-2.24 5.013-5.013 5.013c-2.773 0-5.013-2.24-5.013-5.013s2.24-5.013 5.013-5.013zM16 3.107c-5.533 0-10.027 4.493-10.027 10.027 0 8.24 8.373 14.92 10.027 15.72 1.653-0.8 10.027-7.48 10.027-15.72 0-5.533-4.493-10.027-10.027-10.027zM16 1.68c6.32 0.013 11.453 5.133 11.453 11.453 0 9.533-10.173 17.187-11.453 17.187s-11.453-7.653-11.453-17.187c0-6.32 5.133-11.453 11.453-11.453z"></path>
</svg>
