<svg version="1.1" xmlns="http://www.w3.org/2000/svg" width="32" height="32" viewBox="0 0 32 32" fill="#FFFFFF">
<path d="M16 29.2c-7.333 0-13.2-5.867-13.2-13.2s5.867-13.2 13.2-13.2 13.2 5.867 13.2 13.2c0 7.333-5.867 13.2-13.2 13.2zM16 1.333c-8.133 0-14.667 6.533-14.667 14.667s6.533 14.667 14.667 14.667c8.133 0 14.667-6.533 14.667-14.667s-6.533-14.667-14.667-14.667z"></path>
<path d="M25.867 26c-1.2-4.267-4.8-6.267-10-6.267-5.067 0-8.533 1.867-9.867 5.733-0.4 1.067 1.067 2 1.333 1.2 0.933-3.6 3.867-5.2 8.533-5.2 4.933 0 8 1.867 8.667 5.733 0.133 0.533 1.6-0.267 1.333-1.2z"></path>
<path d="M15.733 18.8c3.2 0 5.867-3.333 5.867-7.467s-2.667-6-5.867-6-5.733 1.867-5.733 6 2.533 7.467 5.733 7.467zM15.733 6.933c2.667 0 4.267 1.467 4.267 4.4 0 3.333-2 5.867-4.267 5.867s-4.133-2.533-4.133-5.867c0-2.933 1.467-4.4 4.133-4.4z"></path>
</svg>
