<svg height="512" viewBox="0 0 64 64" width="512" xmlns="http://www.w3.org/2000/svg"><g id="main"><path d="m38.55993 2.62793a30.8406 30.8406 0 0 0 -9.36034-1.62793h-.03613a2.9303 2.9303 0 0 0 -2.77636 1.937l-2.2998 6.648a2.82274 2.82274 0 0 0 .43457 2.67188 2.9454 2.9454 0 0 0 2.60058 1.12255 17.91914 17.91914 0 0 1 19.5234 17.542 2.88366 2.88366 0 0 0 3.623 2.79443l6.5703-1.70654a2.89414 2.89414 0 0 0 2.15433-2.99032v-.002a30.05939 30.05939 0 0 0 -20.43355-26.38907z" fill="#FFF"/><path d="m33.8894 16.17c-4.307-1.47-6.43506-.46739-8.36-.96l-16.41998 31.8a1.00458 1.00458 0 0 0 1.3 1.38l6.45-2.87v12.97a4.54514 4.54514 0 0 0 9.09 0v-16.07c0-.99026.53218-1.1813 1.28-1.52a1.27771 1.27771 0 0 1 1.79 1.16v4.89a4.04008 4.04008 0 0 0 8.07994 0v-10.43l7.99-3.56a4.85543 4.85543 0 0 1 -.44-2.04 15.81522 15.81522 0 0 0 -10.75996-14.75zm-9.88999 21.83a3 3 0 1 1 3-3 3.00883 3.00883 0 0 1 -3 3zm7-17a2 2 0 1 1 2 2 2.00586 2.00586 0 0 1 -2.00001-2zm6 11a2 2 0 1 1 2-2 2.0059 2.0059 0 0 1 -2.00003 2z" fill="#FFF"/></g></svg>