<svg version="1.1" xmlns="http://www.w3.org/2000/svg" width="32" height="32" viewBox="0 0 32 32"><path d="M20.533 11.867c0.267-0.267 0.667-0.4 1.067-0.133 0.267 0.267 0.4 0.667 0.133 1.067l-5.867 7.333c-0.133 0.133-0.267 0.267-0.533 0.267 0 0 0 0 0 0-0.133 0-0.4-0.133-0.533-0.267l-3.6-3.6c-0.267-0.267-0.267-0.8 0-1.067s0.8-0.267 1.067 0l3.067 3.067 5.2-6.667zM16 2.8c-7.333 0-13.2 5.867-13.2 13.2s5.867 13.2 13.2 13.2c7.333 0 13.2-5.867 13.2-13.2s-5.867-13.2-13.2-13.2zM16 1.333c8.133 0 14.667 6.533 14.667 14.667s-6.533 14.667-14.667 14.667c-8.133 0-14.667-6.533-14.667-14.667s6.533-14.667 14.667-14.667z" fill="currentcolor"></path></svg>