<?xml version="1.0" encoding="UTF-8" standalone="no"?>
<!-- Created with Inkscape (http://www.inkscape.org/) -->
<svg
   xmlns:svg="http://www.w3.org/2000/svg"
   xmlns="http://www.w3.org/2000/svg"
   version="1.0"
   width="1133.8583"
   height="706.88977"
   id="svg3966">
  <defs
     id="defs3968" />
  <g
     transform="translate(112.2687,-199.5575)"
     id="layer1">
    <g
       transform="translate(35.433071,35.434149)"
       id="g4014">
      <g
         transform="matrix(22.681031,0,0,-22.681031,419.26126,753.24683)"
         id="g2903">
        <path
           d="M 0,0 C 2.83,2.564 4.608,6.27 4.608,10.392 C 4.608,14.513 2.83,18.218 0,20.783 C -2.49,23.039 -5.791,24.412 -9.414,24.412 C -17.156,24.412 -23.435,18.135 -23.435,10.392 C -23.435,2.648 -17.156,-3.63 -9.414,-3.63 C -5.791,-3.63 -2.49,-2.256 0,0"
           id="path2905"
           style="fill:#009cdc;fill-opacity:1;fill-rule:nonzero;stroke:none" />
      </g>
      <g
         transform="matrix(22.681031,0,0,-22.681031,419.26126,753.24683)"
         id="g2907">
        <path
           d="M 0,0 C 2.83,2.564 4.608,6.27 4.608,10.392 C 4.608,14.513 2.83,18.218 0,20.783"
           id="path2909"
           style="fill:#009cdc;fill-opacity:1;fill-rule:nonzero;stroke:none" />
      </g>
      <g
         transform="matrix(22.681031,0,0,-22.681031,419.26126,753.24683)"
         id="g2911">
        <path
           d="M 0,0 C 2.83,2.564 4.608,6.27 4.608,10.392 C 4.608,14.513 2.83,18.218 0,20.783"
           id="path2913"
           style="fill:none;stroke:#009cdc;stroke-width:0.1;stroke-linecap:butt;stroke-linejoin:miter;stroke-miterlimit:4;stroke-dasharray:none;stroke-opacity:1" />
      </g>
      <g
         transform="matrix(22.681031,0,0,-22.681031,632.7127,199.5575)"
         id="g2915">
        <path
           d="M 0,0 C -3.622,0 -6.924,-1.373 -9.411,-3.629 C -9.919,-4.088 -10.392,-4.585 -10.828,-5.114 L -7.997,-5.114 C -7.61,-5.584 -7.252,-6.079 -6.928,-6.597 L -11.897,-6.597 C -12.194,-7.074 -12.465,-7.57 -12.705,-8.082 L -6.121,-8.082 C -5.895,-8.563 -5.696,-9.058 -5.526,-9.568 L -13.299,-9.568 C -13.46,-10.051 -13.596,-10.546 -13.706,-11.052 L -5.119,-11.052 C -4.912,-12.009 -4.803,-13.002 -4.803,-14.02 C -4.803,-15.577 -5.057,-17.075 -5.526,-18.474 L -13.299,-18.474 C -13.128,-18.983 -12.93,-19.479 -12.705,-19.959 L -6.121,-19.959 C -6.36,-20.472 -6.63,-20.967 -6.928,-21.445 L -11.897,-21.445 C -11.573,-21.963 -11.215,-22.458 -10.828,-22.928 L -7.997,-22.928 C -8.432,-23.457 -8.906,-23.954 -9.411,-24.412 C -6.924,-26.668 -3.622,-28.042 0,-28.042 C 7.744,-28.042 14.021,-21.764 14.021,-14.02 C 14.021,-6.277 7.744,0 0,0"
           id="path2917"
           style="fill:#ed2233;fill-opacity:1;fill-rule:nonzero;stroke:none" />
      </g>
      <g
         transform="matrix(22.681031,0,0,-22.681031,917.2686,694.23106)"
         id="g2919">
        <path
           d="M 0,0 L 0.051,0 C 0.069,0 0.091,-0.001 0.108,0.008 C 0.123,0.018 0.131,0.036 0.131,0.053 C 0.131,0.069 0.122,0.086 0.108,0.094 C 0.092,0.104 0.066,0.101 0.048,0.101 L 0,0.101 L 0,0 z M 0,-0.225 L -0.093,-0.225 L -0.093,0.173 L 0.074,0.173 C 0.109,0.173 0.146,0.172 0.176,0.152 C 0.209,0.131 0.227,0.092 0.227,0.053 C 0.227,0.008 0.201,-0.034 0.158,-0.05 L 0.232,-0.225 L 0.129,-0.225 L 0.068,-0.068 L 0,-0.068 L 0,-0.225 z M 0.061,-0.371 C 0.251,-0.371 0.406,-0.217 0.406,-0.027 C 0.406,0.163 0.251,0.317 0.061,0.317 C -0.128,0.317 -0.284,0.163 -0.284,-0.027 C -0.284,-0.217 -0.128,-0.371 0.061,-0.371 z M -0.392,-0.027 C -0.392,0.224 -0.19,0.426 0.061,0.426 C 0.312,0.426 0.513,0.224 0.513,-0.027 C 0.513,-0.276 0.312,-0.48 0.061,-0.48 C -0.19,-0.48 -0.392,-0.276 -0.392,-0.027"
           id="path2921"
           style="fill:#ed2233;fill-opacity:1;fill-rule:nonzero;stroke:none" />
      </g>
      <g
         transform="matrix(22.681031,0,0,-22.681031,156.11618,606.0472)"
         id="g2923">
        <path
           d="M 0,0 L -1.762,0 L -0.726,5.465 L -3.114,0 L -4.588,0 L -4.878,5.435 L -6.033,0 L -7.636,0 L -6.283,7.109 L -3.512,7.109 L -3.481,2.709 L -1.561,7.109 L 1.375,7.109 L 0,0"
           id="path2925"
           style="fill:#003873;fill-opacity:1;fill-rule:nonzero;stroke:none" />
      </g>
      <g
         transform="matrix(22.681031,0,0,-22.681031,598.3509,604.41417)"
         id="g2927">
        <path
           d="M 0,0 C -0.478,-0.131 -0.851,-0.188 -1.254,-0.188 C -2.147,-0.188 -2.634,0.26 -2.634,1.082 C -2.634,1.244 -2.617,1.418 -2.582,1.6 L -2.477,2.166 L -2.395,2.624 L -1.586,7.037 L 0.15,7.037 L -0.102,5.71 L 0.788,5.71 L 0.549,4.304 L -0.345,4.304 L -0.805,1.892 C -0.825,1.787 -0.835,1.708 -0.835,1.654 C -0.835,1.355 -0.655,1.225 -0.24,1.225 C -0.041,1.225 0.113,1.243 0.231,1.28 L 0,0"
           id="path2929"
           style="fill:#003873;fill-opacity:1;fill-rule:nonzero;stroke:none" />
      </g>
      <g
         transform="matrix(22.681031,0,0,-22.681031,441.21649,516.34372)"
         id="g2931">
        <path
           d="M 0,0 C 0,-0.73 0.411,-1.233 1.344,-1.61 C 2.059,-1.901 2.17,-1.986 2.17,-2.25 C 2.17,-2.61 1.855,-2.772 1.157,-2.772 C 0.629,-2.772 0.14,-2.699 -0.425,-2.542 L -0.669,-3.876 L -0.589,-3.888 L -0.266,-3.948 C -0.163,-3.967 -0.009,-3.983 0.195,-3.998 C 0.615,-4.031 0.939,-4.047 1.168,-4.047 C 3.031,-4.047 3.892,-3.435 3.892,-2.118 C 3.892,-1.325 3.533,-0.859 2.647,-0.509 C 1.907,-0.215 1.822,-0.151 1.822,0.119 C 1.822,0.43 2.115,0.59 2.686,0.59 C 3.032,0.59 3.505,0.558 3.954,0.504 L 4.206,1.842 C 3.749,1.905 3.055,1.956 2.652,1.956 C 0.678,1.956 -0.006,1.067 0,0"
           id="path2933"
           style="fill:#003873;fill-opacity:1;fill-rule:nonzero;stroke:none" />
      </g>
      <g
         transform="matrix(22.681031,0,0,-22.681031,257.47746,547.62087)"
         id="g2935">
        <path
           d="M 0,0 C -0.183,0.02 -0.263,0.025 -0.39,0.025 C -1.379,0.025 -1.88,-0.272 -1.88,-0.855 C -1.88,-1.215 -1.636,-1.445 -1.254,-1.445 C -0.542,-1.445 -0.03,-0.854 0,0 z M 1.178,-2.576 L -0.273,-2.576 L -0.238,-1.977 C -0.681,-2.45 -1.269,-2.674 -2.07,-2.674 C -3.014,-2.674 -3.664,-2.031 -3.664,-1.096 C -3.664,0.312 -2.536,1.133 -0.599,1.133 C -0.399,1.133 -0.148,1.117 0.113,1.088 C 0.167,1.278 0.181,1.361 0.181,1.464 C 0.181,1.847 -0.123,1.989 -0.938,1.989 C -1.436,1.989 -1.999,1.928 -2.388,1.828 L -2.63,1.768 L -2.786,1.73 L -2.545,3.03 C -1.674,3.252 -1.1,3.337 -0.455,3.337 C 1.044,3.337 1.838,2.75 1.838,1.641 C 1.838,1.356 1.81,1.138 1.695,0.495 C 1.546,-0.511 1.298,-1.552 1.178,-2.576"
           id="path2937"
           style="fill:#003873;fill-opacity:1;fill-rule:nonzero;stroke:none" />
      </g>
      <g
         transform="matrix(22.681031,0,0,-22.681031,395.08327,525.18932)"
         id="g2939">
        <path
           d="M 0,0 C 0.01,0.121 0.014,0.221 0.014,0.296 C 0.014,0.764 -0.291,1.042 -0.811,1.042 C -1.367,1.042 -1.763,0.671 -1.924,0.005 L 0,0 z M 0.847,-3.439 C 0.249,-3.598 -0.329,-3.675 -0.941,-3.674 C -2.892,-3.673 -3.908,-2.784 -3.908,-1.085 C -3.908,0.901 -2.615,2.361 -0.859,2.361 C 0.578,2.361 1.495,1.543 1.495,0.26 C 1.495,-0.166 1.432,-0.581 1.281,-1.166 L -2.188,-1.166 C -2.202,-1.256 -2.206,-1.296 -2.206,-1.349 C -2.206,-2.02 -1.689,-2.36 -0.675,-2.36 C -0.052,-2.36 0.512,-2.247 1.137,-1.994 L 0.847,-3.439"
           id="path2941"
           style="fill:#003873;fill-opacity:1;fill-rule:nonzero;stroke:none" />
      </g>
      <g
         transform="matrix(22.681031,0,0,-22.681031,796.5604,530.90493)"
         id="g2943">
        <path
           d="M 0,0 C 0,0.604 -0.245,1.175 -0.961,1.175 C -1.851,1.175 -2.403,0.124 -2.403,-0.806 C -2.403,-1.59 -2.025,-2.116 -1.401,-2.104 C -1.023,-2.104 -0.217,-1.59 -0.057,-0.69 C -0.02,-0.481 0,-0.249 0,0 z M 1.772,-0.691 C 1.512,-2.614 0.169,-3.468 -1.617,-3.468 C -3.591,-3.468 -4.389,-2.269 -4.389,-0.803 C -4.389,1.247 -3.039,2.635 -0.953,2.635 C 0.857,2.635 1.819,1.492 1.819,0.026 C 1.819,-0.33 1.818,-0.355 1.772,-0.691"
           id="path2945"
           style="fill:#003873;fill-opacity:1;fill-rule:nonzero;stroke:none" />
      </g>
      <g
         transform="matrix(22.681031,0,0,-22.681031,849.9969,585.86108)"
         id="g2947">
        <path
           d="M 0,0 L 0.052,0 C 0.071,0 0.092,-0.002 0.108,0.007 C 0.123,0.016 0.132,0.035 0.132,0.053 C 0.132,0.068 0.121,0.085 0.109,0.092 C 0.093,0.103 0.067,0.101 0.05,0.101 L 0,0.101 L 0,0 z M 0,-0.226 L -0.092,-0.226 L -0.092,0.171 L 0.076,0.171 C 0.11,0.171 0.146,0.171 0.178,0.152 C 0.21,0.13 0.229,0.091 0.229,0.052 C 0.229,0.007 0.202,-0.035 0.159,-0.051 L 0.232,-0.226 L 0.129,-0.226 L 0.068,-0.07 L 0,-0.07 L 0,-0.226 z M 0.062,-0.37 C 0.252,-0.37 0.405,-0.218 0.405,-0.028 C 0.405,0.162 0.252,0.316 0.062,0.316 C -0.128,0.316 -0.282,0.162 -0.282,-0.028 C -0.282,-0.218 -0.128,-0.37 0.062,-0.37 z M -0.391,-0.028 C -0.391,0.223 -0.189,0.425 0.062,0.425 C 0.311,0.425 0.515,0.223 0.515,-0.028 C 0.515,-0.278 0.311,-0.481 0.062,-0.481 C -0.189,-0.481 -0.391,-0.278 -0.391,-0.028"
           id="path2949"
           style="fill:#ffffff;fill-opacity:1;fill-rule:nonzero;stroke:none" />
      </g>
      <g
         transform="matrix(22.681031,0,0,-22.681031,166.02754,596.77041)"
         id="g2951">
        <path
           d="M 0,0 L -1.745,0 L -0.707,5.465 L -3.096,0 L -4.687,0 L -4.978,5.435 L -6.019,0 L -7.602,0 L -6.249,7.109 L -3.526,7.109 L -3.382,2.708 L -1.461,7.109 L 1.376,7.109 L 0,0"
           id="path2953"
           style="fill:#ffffff;fill-opacity:1;fill-rule:nonzero;stroke:none" />
      </g>
      <g
         transform="matrix(22.681031,0,0,-22.681031,608.353,595.13763)"
         id="g2955">
        <path
           d="M 0,0 C -0.477,-0.132 -0.851,-0.188 -1.253,-0.188 C -2.147,-0.188 -2.634,0.26 -2.634,1.082 C -2.634,1.245 -2.616,1.417 -2.583,1.601 L -2.477,2.166 L -2.394,2.624 L -1.586,7.038 L 0.15,7.038 L -0.102,5.709 L 0.789,5.709 L 0.55,4.305 L -0.346,4.305 L -0.805,1.893 C -0.825,1.786 -0.834,1.707 -0.834,1.654 C -0.834,1.355 -0.655,1.224 -0.239,1.224 C -0.041,1.224 0.114,1.243 0.231,1.28 L 0,0"
           id="path2957"
           style="fill:#ffffff;fill-opacity:1;fill-rule:nonzero;stroke:none" />
      </g>
      <g
         transform="matrix(22.681031,0,0,-22.681031,710.0774,503.27941)"
         id="g2959">
        <path
           d="M 0,0 L -0.041,0.184 L 0.308,1.089 C 0.226,1.098 0.192,1.099 0.175,1.105 C 0.082,1.125 0.033,1.136 0.025,1.137 C -0.028,1.147 -0.086,1.152 -0.151,1.152 C -0.724,1.152 -1.137,0.898 -1.67,0.214 L -1.487,1.242 L -3.295,1.242 L -4.37,-4.531 L -2.636,-4.531 C -2.397,-3.205 -2.292,-2.45 -2.151,-1.826 C -1.919,-0.784 -1.144,-0.312 -0.591,-0.417 C -0.53,-0.429 -0.476,-0.431 -0.396,-0.462 L -0.29,-0.502 L 0,0"
           id="path2961"
           style="fill:#003873;fill-opacity:1;fill-rule:nonzero;stroke:none" />
      </g>
      <g
         transform="matrix(22.681031,0,0,-22.681031,723.9582,466.71761)"
         id="g2963">
        <path
           d="M 0,0 C -0.147,0.057 -0.18,0.057 -0.198,0.063 C -0.291,0.083 -0.339,0.095 -0.348,0.096 C -0.401,0.106 -0.459,0.112 -0.524,0.112 C -1.097,0.112 -1.51,-0.144 -2.043,-0.828 L -1.889,0.047 L -3.47,0.047 L -4.534,-5.734 L -2.788,-5.734 C -2.163,-2.198 -1.895,-1.578 -1.057,-1.578 C -0.995,-1.578 -0.922,-1.583 -0.836,-1.592 L -0.633,-1.635 L 0,0"
           id="path2965"
           style="fill:#ffffff;fill-opacity:1;fill-rule:nonzero;stroke:none" />
      </g>
      <g
         transform="matrix(22.681031,0,0,-22.681031,451.44562,507.06743)"
         id="g2967">
        <path
           d="M 0,0 C 0,-0.73 0.412,-1.234 1.346,-1.611 C 2.06,-1.901 2.17,-1.987 2.17,-2.25 C 2.17,-2.609 1.855,-2.771 1.157,-2.771 C 0.63,-2.771 0.14,-2.7 -0.425,-2.543 L -0.667,-3.876 L -0.589,-3.889 L -0.265,-3.949 C -0.162,-3.967 -0.007,-3.982 0.196,-3.998 C 0.615,-4.031 0.94,-4.047 1.169,-4.047 C 3.032,-4.047 3.892,-3.438 3.892,-2.118 C 3.892,-1.324 3.533,-0.859 2.649,-0.508 C 1.908,-0.216 1.823,-0.151 1.823,0.118 C 1.823,0.43 2.116,0.59 2.687,0.59 C 3.033,0.59 3.507,0.557 3.956,0.504 L 4.207,1.842 C 3.75,1.904 3.057,1.955 2.654,1.955 C 0.678,1.955 -0.005,1.067 0,0"
           id="path2969"
           style="fill:#ffffff;fill-opacity:1;fill-rule:nonzero;stroke:none" />
      </g>
      <g
         transform="matrix(22.681031,0,0,-22.681031,265.82407,538.34433)"
         id="g2971">
        <path
           d="M 0,0 C -0.183,0.019 -0.264,0.024 -0.39,0.024 C -1.379,0.024 -1.88,-0.272 -1.88,-0.855 C -1.88,-1.215 -1.636,-1.446 -1.254,-1.446 C -0.543,-1.446 -0.029,-0.854 0,0 z M 1.274,-2.576 L -0.177,-2.576 L -0.144,-1.976 C -0.585,-2.45 -1.173,-2.676 -1.974,-2.676 C -2.92,-2.676 -3.568,-2.032 -3.568,-1.096 C -3.568,0.311 -2.44,1.132 -0.503,1.132 C -0.305,1.132 -0.052,1.117 0.209,1.087 C 0.262,1.278 0.276,1.361 0.276,1.464 C 0.276,1.847 -0.027,1.99 -0.843,1.99 C -1.34,1.99 -1.905,1.928 -2.293,1.829 L -2.534,1.767 L -2.69,1.729 L -2.449,3.03 C -1.578,3.251 -1.004,3.336 -0.359,3.336 C 1.14,3.336 1.933,2.749 1.933,1.641 C 1.933,1.355 1.906,1.138 1.791,0.495 C 1.649,-0.515 1.389,-1.55 1.274,-2.576"
           id="path2973"
           style="fill:#ffffff;fill-opacity:1;fill-rule:nonzero;stroke:none" />
      </g>
      <g
         transform="matrix(22.681031,0,0,-22.681031,403.47525,515.91278)"
         id="g2975">
        <path
           d="M 0,0 C 0.01,0.121 0.014,0.22 0.014,0.295 C 0.014,0.765 -0.292,1.041 -0.811,1.041 C -1.365,1.041 -1.764,0.67 -1.925,0.004 L 0,0 z M 0.93,-3.439 C 0.33,-3.597 -0.248,-3.675 -0.86,-3.675 C -2.81,-3.672 -3.827,-2.785 -3.827,-1.085 C -3.827,0.901 -2.533,2.362 -0.776,2.362 C 0.659,2.362 1.577,1.543 1.577,0.26 C 1.577,-0.165 1.515,-0.581 1.362,-1.167 L -2.107,-1.167 C -2.121,-1.256 -2.125,-1.297 -2.125,-1.35 C -2.125,-2.019 -1.606,-2.361 -0.593,-2.361 C 0.031,-2.361 0.594,-2.247 1.22,-1.995 L 0.93,-3.439"
           id="path2977"
           style="fill:#ffffff;fill-opacity:1;fill-rule:nonzero;stroke:none" />
      </g>
      <g
         transform="matrix(22.681031,0,0,-22.681031,806.2452,520.53972)"
         id="g2979">
        <path
           d="M 0,0 C 0,0.605 -0.246,1.176 -0.962,1.176 C -1.852,1.176 -2.405,0.123 -2.405,-0.805 C -2.405,-1.589 -2.025,-2.117 -1.401,-2.105 C -1.024,-2.105 -0.217,-1.589 -0.057,-0.689 C -0.02,-0.48 0,-0.248 0,0 z M 1.797,-0.739 C 1.535,-2.662 0.193,-3.516 -1.593,-3.516 C -3.568,-3.516 -4.365,-2.317 -4.365,-0.85 C -4.365,1.199 -3.015,2.586 -0.929,2.586 C 0.881,2.586 1.842,1.444 1.842,-0.022 C 1.842,-0.379 1.842,-0.402 1.797,-0.739"
           id="path2981"
           style="fill:#ffffff;fill-opacity:1;fill-rule:nonzero;stroke:none" />
      </g>
    </g>
  </g>
</svg>
