
<svg version="1.1" xmlns="http://www.w3.org/2000/svg" xmlns:xlink="http://www.w3.org/1999/xlink" x="0px" y="0px" viewBox="0 0 48 48" style="enable-background:new 0 0 48 48;" xml:space="preserve">
	<path d="M8.17,46.56h0.02c-0.01-0.01-0.02-0.01-0.02-0.02V46.56z" fill="#ffffff" />
	<g>
		<path d="M27.31,21.53c0.28-0.15,0.56-0.35,0.84-0.58c0.28-0.24,0.54-0.5,0.78-0.8c0.24-0.29,0.41-0.61,0.51-0.94
			c0.11-0.33,0.13-0.67,0.06-1.01c-0.06-0.34-0.26-0.67-0.59-0.99c-0.11-0.1-0.22-0.15-0.34-0.17c-0.12-0.01-0.23,0-0.35,0.04
			c-0.11,0.04-0.22,0.1-0.32,0.18c-0.1,0.08-0.2,0.17-0.29,0.26c-0.18,0.19-0.39,0.47-0.61,0.83c-0.22,0.36-0.41,0.75-0.55,1.17
			c-0.14,0.42-0.22,0.83-0.22,1.24c0,0.4,0.12,0.75,0.37,1.04C26.8,21.77,27.04,21.68,27.31,21.53z" fill="#ffffff" />
		<path d="M31.5,23.93c-0.17,0.04-0.32,0.11-0.46,0.21c-0.14,0.09-0.26,0.2-0.38,0.31c-0.12,0.12-0.23,0.22-0.34,0.32l0.04-0.01
			c-0.28,0.23-0.52,0.46-0.74,0.69c-0.22,0.23-0.44,0.49-0.69,0.77l-2.42,3.55c0.19-0.04,0.46-0.16,0.79-0.34
			c0.34-0.18,0.7-0.42,1.1-0.7c0.4-0.29,0.81-0.61,1.23-0.98c0.42-0.37,0.8-0.76,1.15-1.19c0.35-0.42,0.64-0.85,0.87-1.3
			c0.24-0.45,0.37-0.89,0.41-1.32C31.86,23.89,31.67,23.88,31.5,23.93z" fill="#ffffff" />
		<path d="M41.15,6.09c-1.96-0.64-3.97-0.53-5.75,0.17c0.14,0.16,0.27,0.34,0.42,0.53c0.19,0.25,0.39,0.52,0.58,0.8
			c0.19,0.28,0.34,0.56,0.46,0.83c0.12,0.27,0.19,0.52,0.21,0.75c0.02,0.23-0.04,0.42-0.18,0.57c-0.18,0-0.37-0.07-0.56-0.21
			C36.14,9.39,35.96,9.21,35.78,9c-0.18-0.21-0.36-0.43-0.53-0.66c-0.17-0.23-0.33-0.43-0.47-0.58c-0.24-0.29-0.49-0.56-0.73-0.83
			C34.03,6.95,34.01,6.95,34,6.96c-0.21-0.28-0.43-0.53-0.66-0.79c-0.19-0.2-0.37-0.39-0.56-0.59c-0.02-0.02-0.04-0.04-0.06-0.06
			c-2.24-2.22-5.31-3.6-8.72-3.6c-4.1,0-7.73,1.99-10,5.05c-2.06-1.29-4.66-1.69-7.15-0.87c-4.46,1.46-6.89,6.27-5.42,10.73
			c0.67,2.04,2.04,3.64,3.75,4.66c0.8,0.68,1.69,1.35,2.61,2.06c0,0,0,0,0-0.01c0.02-0.84,0.06-3.75,0.12-4.63
			c0.16-0.12,0.29,0.04,0.38,0.5c0.09,0.46,0.15,1.08,0.19,1.87c0.04,0.79,0.05,1.68,0.05,2.67c0,0.99-0.02,1.98-0.05,2.97
			c0,0.12-0.01,0.23-0.01,0.34c0.16,4.56,0.39,10.49,0.49,14.26c0.26-0.33,0.64-0.58,0.98-0.79c0.6-0.35,1.24-0.62,1.89-0.84
			c1.3-0.46,2.63-0.81,3.98-1.08c2.7-0.55,5.45-0.86,8.21-0.89c2.75-0.01,5.52,0.15,8.25,0.62c1.37,0.24,2.73,0.54,4.07,0.99
			c0.67,0.23,1.34,0.49,1.99,0.87c0.26,0.15,0.52,0.34,0.76,0.55l0.56-16.98c1.11-0.9,2.2-1.67,3.17-2.5
			c1.71-1.01,3.08-2.62,3.75-4.66C48.04,12.36,45.61,7.56,41.15,6.09z M24.81,19.19c0.13-0.4,0.3-0.78,0.51-1.15
			c0.21-0.37,0.45-0.7,0.72-1c0.27-0.3,0.56-0.53,0.85-0.68c0.44-0.23,0.88-0.33,1.32-0.29c0.44,0.04,0.84,0.16,1.21,0.36
			c0.36,0.2,0.68,0.45,0.95,0.74c0.27,0.3,0.45,0.59,0.57,0.86l0.02,0.03c0.2,0,0.4-0.01,0.59-0.02c0.2-0.01,0.38,0,0.54,0.03
			c0.16,0.03,0.3,0.09,0.41,0.17c0.11,0.09,0.18,0.23,0.2,0.41c-0.2,0.2-0.42,0.32-0.69,0.35c-0.26,0.03-0.56,0.04-0.88,0.01
			c-0.1,0.45-0.25,0.84-0.44,1.17c-0.19,0.33-0.4,0.63-0.62,0.88c-0.09,0.09-0.2,0.2-0.34,0.32s-0.29,0.25-0.46,0.38
			c-0.17,0.13-0.34,0.24-0.52,0.36c-0.18,0.11-0.35,0.2-0.51,0.27c-0.44,0.19-0.89,0.28-1.33,0.26c-0.44-0.02-0.83-0.12-1.18-0.31
			c-0.34-0.19-0.62-0.46-0.84-0.81c-0.22-0.35-0.32-0.75-0.31-1.22C24.61,19.96,24.68,19.58,24.81,19.19z M16.42,19.29
			c0.2-0.47,0.47-0.91,0.8-1.31s0.71-0.75,1.14-1.06c0.43-0.31,0.87-0.55,1.34-0.71c0.47-0.17,0.94-0.26,1.41-0.26
			c0.47-0.01,0.91,0.09,1.33,0.28c0.14,0.08,0.25,0.17,0.34,0.26c0.09,0.1,0.13,0.19,0.14,0.28c0.01,0.09-0.04,0.16-0.13,0.22
			c-0.09,0.06-0.24,0.08-0.45,0.06c-0.21-0.01-0.37-0.02-0.49-0.03c-0.12-0.01-0.23-0.02-0.33-0.01c-0.1,0.01-0.21,0.03-0.32,0.06
			c-0.11,0.04-0.26,0.1-0.45,0.18c-0.21,0.09-0.41,0.21-0.6,0.34c-0.2,0.14-0.38,0.28-0.56,0.44c-0.18,0.16-0.34,0.33-0.48,0.51
			c-0.15,0.18-0.27,0.35-0.36,0.51c-0.13,0.2-0.24,0.41-0.36,0.63c-0.11,0.22-0.2,0.45-0.27,0.7c-0.07,0.25-0.1,0.5-0.11,0.77
			c-0.01,0.26,0.04,0.53,0.13,0.79c0.22-0.02,0.47-0.07,0.75-0.15c0.28-0.08,0.56-0.17,0.84-0.28s0.55-0.22,0.81-0.33
			c0.26-0.11,0.47-0.21,0.64-0.29c0.17-0.09,0.28-0.19,0.35-0.29c0.06-0.1,0.11-0.2,0.14-0.29c0.03-0.09,0.06-0.19,0.1-0.3
			c0.04-0.1,0.12-0.21,0.23-0.32c0.1-0.1,0.21-0.16,0.33-0.18c0.12-0.02,0.25-0.02,0.37,0.02c0.12,0.03,0.24,0.08,0.36,0.15
			c0.11,0.07,0.21,0.14,0.29,0.2c0.02,0.12,0.02,0.26,0.01,0.43c-0.02,0.17-0.05,0.34-0.09,0.51c-0.04,0.17-0.09,0.34-0.13,0.51
			c-0.04,0.17-0.72,3.21-0.77,3.46c-0.16,0.68-1.76,0.06-1.61-0.97c0.15-1.03,0.16-0.92,0.15-1.03c-0.01-0.11,0.02-0.3,0.07-0.57
			c-0.26,0.11-0.5,0.22-0.72,0.33c-0.23,0.11-0.46,0.19-0.69,0.26c-0.24,0.07-0.49,0.1-0.77,0.11c-0.28,0-0.6-0.04-0.97-0.12
			c-0.25-0.06-0.48-0.14-0.69-0.25c-0.21-0.11-0.39-0.25-0.55-0.42c-0.16-0.17-0.28-0.36-0.37-0.6c-0.09-0.23-0.13-0.5-0.12-0.81
			C16.11,20.25,16.22,19.76,16.42,19.29z M33,25.01c-0.1,0.46-0.25,0.92-0.45,1.39c-0.2,0.47-0.45,0.92-0.75,1.36
			c-0.3,0.44-0.63,0.84-0.99,1.2c-0.83,0.84-1.76,1.58-2.79,2.2c-1.03,0.63-2.17,1.11-3.43,1.44c-0.64,0.17-1.32,0.28-2.03,0.34
			c-0.71,0.06-1.41,0.03-2.09-0.07c-0.69-0.11-1.33-0.31-1.94-0.61c-0.61-0.3-1.14-0.71-1.58-1.24c-0.72-0.88-1.2-1.8-1.44-2.75
			c-0.24-0.95-0.29-1.9-0.15-2.85c0.14-0.95,1.52-1.35,1.25-0.56s-0.38,1.5-0.34,2.13c0.05,0.64,0.23,1.2,0.55,1.68
			s0.73,0.89,1.23,1.23c0.5,0.33,1.06,0.59,1.69,0.76c0.63,0.18,1.28,0.27,1.95,0.3c0.67,0.02,1.34-0.03,2.01-0.17
			c0.67-0.14,1.28-0.35,1.85-0.63c0.18-0.44,0.33-0.84,0.46-1.18c0.12-0.35,0.24-0.67,0.34-0.96c0.11-0.3,0.22-0.58,0.33-0.86
			c0.11-0.27,0.25-0.55,0.41-0.84c0.16-0.29,0.35-0.59,0.58-0.91c0.23-0.32,1.09-1.3,1.22-1.44c0.13-0.14,0.27-0.28,0.41-0.42
			c0.14-0.14-1.3,1.24,0.38-0.4c1.68-1.64,2.39-1.15,2.39-1.15c0.34,0.15,0.59,0.38,0.76,0.68c0.17,0.31,0.26,0.65,0.29,1.05
			C33.13,24.13,33.1,24.56,33,25.01z" fill="#ffffff"/>
		<path d="M37.7,41.51c-0.54-0.29-1.15-0.51-1.78-0.7c-1.25-0.37-2.57-0.62-3.89-0.8c-2.65-0.37-5.34-0.54-8.03-0.59
			c-2.69-0.04-5.39-0.06-8.08,0.18c-1.34,0.13-2.69,0.31-3.99,0.65c-0.65,0.18-1.29,0.38-1.89,0.69c-0.56,0.3-1.21,0.72-1.26,1.38
			c0.03,0.66,0.67,1.1,1.23,1.42c0.59,0.33,1.22,0.57,1.87,0.78c1.3,0.39,2.64,0.63,3.98,0.81c2.69,0.33,5.41,0.43,8.12,0.39
			c2.71-0.03,5.41-0.21,8.07-0.64c1.33-0.22,2.64-0.5,3.9-0.9c0.63-0.2,1.24-0.44,1.77-0.75c0.54-0.28,1-0.75,0.95-0.98
			C38.7,42.22,38.24,41.78,37.7,41.51z" fill="#ffffff"/>
	</g>
	<path d="M-47.83,46.56h0.02c-0.01-0.01-0.02-0.01-0.02-0.02V46.56z" fill="#ffffff" />
	<path d="M-102.83,46.56h0.02c-0.01-0.01-0.02-0.01-0.02-0.02V46.56z" fill="#ffffff" />
</svg>