<?xml version="1.0" encoding="UTF-8"?>
<svg width="20px" height="20px" viewBox="0 0 20 20" version="1.1" xmlns="http://www.w3.org/2000/svg" xmlns:xlink="http://www.w3.org/1999/xlink">
    <g id="Assets" stroke="none" stroke-width="1" fill="none" fill-rule="evenodd">
        <g id="ASSETS" transform="translate(-761.000000, -103.000000)">
            <g id="icon-question" transform="translate(761.000000, 103.000000)">
                <circle id="Oval" fill="#31A48B" cx="10" cy="10" r="10"></circle>
                <path d="M8.90277778,10.6097561 C8.90277778,10.4200533 8.96527715,10.2619699 9.09027778,10.1355014 C9.2152784,10.0090328 9.37036944,9.94579946 9.55555556,9.94579946 C10.175929,9.92773252 10.6828684,9.75835752 11.0763889,9.43766938 C11.4699094,9.11698123 11.6666667,8.65853957 11.6666667,8.06233062 C11.6666667,7.5474229 11.4861129,7.1205979 11.125,6.78184282 C10.7638871,6.44308774 10.3194471,6.27371274 9.79166667,6.27371274 C9.49536889,6.27371274 9.21064951,6.33468774 8.9375,6.45663957 C8.66435049,6.5785914 8.42592694,6.74344973 8.22222222,6.95121951 C8.03703611,7.11382195 7.85185278,7.19512195 7.66666667,7.19512195 C7.53703639,7.19512195 7.41666722,7.15447195 7.30555556,7.07317073 C7.10185083,6.92863523 7,6.76151856 7,6.57181572 C7,6.40921328 7.06944375,6.26016328 7.20833333,6.12466125 C7.52314972,5.77235596 7.90509035,5.4968393 8.35416667,5.29810298 C8.80324299,5.09936667 9.28240486,5 9.79166667,5 C10.3842622,5 10.9236087,5.13098333 11.4097222,5.39295393 C11.8958358,5.65492453 12.282406,6.01851619 12.5694444,6.48373984 C12.8564829,6.94896348 13,7.47515515 13,8.06233062 C13,8.60433875 12.877316,9.08536375 12.6319444,9.50542005 C12.3865728,9.92547636 12.0509281,10.2642264 11.625,10.5216802 C11.1990719,10.7791341 10.7175953,10.9349591 10.1805556,10.9891599 C10.1712962,10.9891599 10.1689815,10.9914182 10.1736111,10.995935 C10.1782408,11.0004517 10.1898147,10.9981934 10.2083333,10.9891599 L10.2083333,11.8834688 C10.2083333,12.0641382 10.145834,12.2177049 10.0208333,12.3441734 C9.89583271,12.470642 9.74074167,12.5338753 9.55555556,12.5338753 C9.36111014,12.5338753 9.20138951,12.470642 9.07638889,12.3441734 C8.95138826,12.2177049 8.89351847,12.0641382 8.90277778,11.8834688 L8.90277778,10.6097561 Z M9.51388889,15 C9.29166556,15 9.12037097,14.939025 9,14.8170732 C8.87962903,14.6951213 8.81944444,14.5257463 8.81944444,14.3089431 L8.81944444,14.0514905 C8.81944444,13.8346873 8.87962903,13.6653123 9,13.5433604 C9.12037097,13.4214086 9.29166556,13.3604336 9.51388889,13.3604336 L9.65277778,13.3604336 C9.87500111,13.3604336 10.0462957,13.4214086 10.1666667,13.5433604 C10.2870376,13.6653123 10.3472222,13.8346873 10.3472222,14.0514905 L10.3472222,14.3089431 C10.3472222,14.5257463 10.2870376,14.6951213 10.1666667,14.8170732 C10.0462957,14.939025 9.87500111,15 9.65277778,15 L9.51388889,15 Z" id="?" fill="#ffffff" fill-rule="nonzero"></path>
            </g>
        </g>
    </g>
</svg>