<?xml version="1.0" encoding="UTF-8"?>
<svg width="23px" height="23px" viewBox="0 0 23 23" version="1.1" xmlns="http://www.w3.org/2000/svg" xmlns:xlink="http://www.w3.org/1999/xlink">
    <g id="Assets" stroke="none" stroke-width="1" fill="none" fill-rule="evenodd">
        <g id="ASSETS" transform="translate(-688.000000, -102.000000)" fill="#2B2C40" fill-rule="nonzero">
            <g id="icon-search" transform="translate(688.000000, 102.000000)">
                <path d="M10.1164706,19.5870588 C15.346932,19.5870588 19.5870588,15.346932 19.5870588,10.1164706 C19.5870588,4.88600913 15.346932,0.645882353 10.1164706,0.645882353 C4.88600913,0.645882353 0.645882353,4.88600913 0.645882353,10.1164706 C0.645882353,15.346932 4.88600913,19.5870588 10.1164706,19.5870588 Z M10.1164706,17.5870588 C5.99057863,17.5870588 2.64588235,14.2423625 2.64588235,10.1164706 C2.64588235,5.99057863 5.99057863,2.64588235 10.1164706,2.64588235 C14.2423625,2.64588235 17.5870588,5.99057863 17.5870588,10.1164706 C17.5870588,14.2423625 14.2423625,17.5870588 10.1164706,17.5870588 Z" id="Oval"></path>
                <path d="M15.3917167,16.8059303 L20.8234815,22.237695 C21.2140057,22.6282193 21.8471707,22.6282193 22.237695,22.237695 C22.6282193,21.8471707 22.6282193,21.2140057 22.237695,20.8234815 L16.8059303,15.3917167 C16.415406,15.0011925 15.782241,15.0011925 15.3917167,15.3917167 C15.0011925,15.782241 15.0011925,16.415406 15.3917167,16.8059303 Z" id="Shape"></path>
            </g>
        </g>
    </g>
</svg>